<svg xmlns="http://www.w3.org/2000/svg" xmlns:xlink="http://www.w3.org/1999/xlink" fill="none" version="1.1" width="360" height="640" viewBox="0 0 360 640"><defs><clipPath id="master_svg0_0_835"><rect x="0" y="0" width="360" height="640" rx="0"/></clipPath><filter id="master_svg1_0_845" filterUnits="objectBoundingBox" color-interpolation-filters="sRGB" x="-38" y="-31" width="400" height="96"><feFlood flood-opacity="0" result="BackgroundImageFix"/><feColorMatrix in="SourceAlpha" type="matrix" values="0 0 0 0 0 0 0 0 0 0 0 0 0 0 0 0 0 0 127 0"/><feOffset dy="4" dx="0"/><feGaussianBlur stdDeviation="2.5"/><feColorMatrix type="matrix" values="0 0 0 0 0 0 0 0 0 0 0 0 0 0 0 0 0 0 0.14000000059604645 0"/><feBlend mode="normal" in2="BackgroundImageFix" result="effect1_dropShadow"/><feColorMatrix in="SourceAlpha" type="matrix" values="0 0 0 0 0 0 0 0 0 0 0 0 0 0 0 0 0 0 127 0"/><feOffset dy="1" dx="0"/><feGaussianBlur stdDeviation="5"/><feColorMatrix type="matrix" values="0 0 0 0 0 0 0 0 0 0 0 0 0 0 0 0 0 0 0.11999999731779099 0"/><feBlend mode="normal" in2="effect1_dropShadow" result="effect2_dropShadow"/><feColorMatrix in="SourceAlpha" type="matrix" values="0 0 0 0 0 0 0 0 0 0 0 0 0 0 0 0 0 0 127 0"/><feOffset dy="2" dx="0"/><feGaussianBlur stdDeviation="2"/><feColorMatrix type="matrix" values="0 0 0 0 0 0 0 0 0 0 0 0 0 0 0 0 0 0 0.20000000298023224 0"/><feBlend mode="normal" in2="effect2_dropShadow" result="effect3_dropShadow"/><feBlend mode="normal" in="SourceGraphic" in2="effect3_dropShadow" result="shape"/></filter><clipPath id="master_svg2_0_852"><rect x="320" y="39" width="24" height="24" rx="0"/></clipPath><clipPath id="master_svg3_0_856"><rect x="0" y="90" width="360" height="64" rx="0"/></clipPath><clipPath id="master_svg4_0_860"><rect x="0" y="164" width="360" height="64" rx="0"/></clipPath><clipPath id="master_svg5_0_864"><rect x="0" y="238" width="360" height="64" rx="0"/></clipPath></defs><g clip-path="url(#master_svg0_0_835)"><rect x="0" y="0" width="360" height="640" rx="0" fill="#FFFFFF" fill-opacity="1"/><g><rect x="0" y="598" width="360" height="42" rx="0" fill="#6200EE" fill-opacity="1"/><g><rect x="273" y="612" width="14" height="14" rx="2" fill="#FFFFFF" fill-opacity="1"/></g><g><path d="M83.48421046142579,612.1461148117676C84.15071046142577,611.7448808117675,85.00001046142577,612.2248968117676,85.00001046142577,613.0028508117675C85.00001046142577,613.0028508117675,85.00001046142577,624.9973008117676,85.00001046142577,624.9973008117676C85.00001046142577,625.7752008117676,84.15071046142577,626.2553008117676,83.48421046142579,625.8540008117676C83.48421046142579,625.8540008117676,73.52215246142578,619.8568008117676,73.52215246142578,619.8568008117676C72.87649646142579,619.4681208117676,72.87649546142578,618.5320208117676,73.52215246142578,618.1433308117676C73.52215246142578,618.1433308117676,83.48421046142579,612.1461148117676,83.48421046142579,612.1461148117676C83.48421046142579,612.1461148117676,83.48421046142579,612.1461148117676,83.48421046142579,612.1461148117676Z" fill-rule="evenodd" fill="#FFFFFF" fill-opacity="1"/></g><g><path d="M188,619Q188,619.19639,187.9904,619.39254Q187.9807,619.58869,187.9615,619.78414Q187.9422,619.97958,187.9134,620.17384Q187.8846,620.36811,187.84629999999999,620.56072Q187.808,620.75334,187.7602,620.94384Q187.7125,621.1343,187.6555,621.3223Q187.5985,621.5102,187.5324,621.6951Q187.46620000000001,621.88,187.391,622.0615Q187.3159,622.2429,187.2319,622.4204Q187.1479,622.598,187.0554,622.7712Q186.9628,622.9444,186.8618,623.1128Q186.7609,623.2813,186.6518,623.4446Q186.5426,623.6079,186.4257,623.7656Q186.3087,623.9233,186.1841,624.0751Q186.0595,624.227,185.9276,624.3725Q185.7957,624.518,185.6569,624.6569Q185.518,624.7957,185.3725,624.9276Q185.227,625.0595,185.0751,625.1841Q184.9233,625.3087,184.7656,625.4257Q184.6079,625.5426,184.4446,625.6518Q184.2813,625.7609,184.1128,625.8618Q183.9444,625.9628,183.7712,626.0554Q183.598,626.1479,183.4204,626.2319Q183.2429,626.3159,183.0615,626.391Q182.88,626.4662,182.6951,626.5324Q182.5102,626.5985,182.3223,626.6555Q182.1343,626.7125,181.94384,626.7602Q181.75334,626.808,181.56072,626.8463Q181.36811,626.8846,181.17384,626.9134Q180.97958,626.9422,180.78414,626.9615Q180.58868999999999,626.9807,180.39254,626.9904Q180.19639,627,180,627Q179.80361,627,179.60746,626.9904Q179.41131000000001,626.9807,179.21586,626.9615Q179.02042,626.9422,178.82616,626.9134Q178.63189,626.8846,178.43928,626.8463Q178.24666,626.808,178.05616,626.7602Q177.86565,626.7125,177.67772,626.6555Q177.48979,626.5985,177.30488,626.5324Q177.11997,626.4662,176.93853000000001,626.391Q176.75709,626.3159,176.57956,626.2319Q176.40203,626.1479,176.22883,626.0554Q176.05563,625.9628,175.88718,625.8618Q175.71873,625.7609,175.55544,625.6518Q175.39215,625.5426,175.23441,625.4257Q175.07666,625.3087,174.92485,625.1841Q174.77304,625.0595,174.62753,624.9276Q174.48201,624.7957,174.34315,624.6569Q174.20428,624.518,174.07239,624.3725Q173.9405,624.227,173.81592,624.0751Q173.69133,623.9233,173.57434,623.7656Q173.45735,623.6079,173.34824,623.4446Q173.23914,623.2813,173.13817,623.1128Q173.03721,622.9444,172.94463,622.7712Q172.852053,622.598,172.768086,622.4204Q172.684118,622.2429,172.608964,622.0615Q172.533809,621.88,172.467647,621.6951Q172.401486,621.5102,172.344477,621.3223Q172.287469,621.1343,172.23975,620.94384Q172.192031,620.75334,172.153718,620.56072Q172.115404,620.36811,172.0865879,620.17384Q172.0577717,619.97958,172.0385222,619.78414Q172.0192727,619.58869,172.00963635,619.39254Q172,619.19639,172,619Q172,618.80361,172.00963635,618.60746Q172.0192727,618.41131,172.0385222,618.21586Q172.0577717,618.02042,172.0865879,617.82616Q172.115404,617.63189,172.153718,617.43928Q172.192031,617.24666,172.23975,617.05616Q172.287469,616.86565,172.344477,616.67772Q172.401486,616.48979,172.467647,616.30488Q172.533809,616.11997,172.608964,615.93853Q172.684118,615.75709,172.768086,615.57956Q172.852053,615.40203,172.94463,615.22883Q173.03721,615.05563,173.13817,614.88718Q173.23914,614.71873,173.34824,614.55544Q173.45735,614.39215,173.57434,614.23441Q173.69133,614.07666,173.81592,613.92485Q173.9405,613.77304,174.07239,613.62753Q174.20428,613.48201,174.34315,613.34315Q174.48201,613.20428,174.62753,613.07239Q174.77304,612.9405,174.92485,612.81592Q175.07666,612.69133,175.23441,612.57434Q175.39215,612.45735,175.55544,612.34824Q175.71873,612.23914,175.88718,612.13817Q176.05563,612.03721,176.22883,611.94463Q176.40203,611.852053,176.57956,611.768086Q176.75709,611.684118,176.93853000000001,611.608964Q177.11997,611.533809,177.30488,611.467647Q177.48979,611.401486,177.67772,611.344477Q177.86565,611.287469,178.05616,611.23975Q178.24666,611.192031,178.43928,611.153718Q178.63189,611.115404,178.82616,611.0865879Q179.02042,611.0577717,179.21586,611.0385222Q179.41131000000001,611.0192727,179.60746,611.00963635Q179.80361,611,180,611Q180.19639,611,180.39254,611.00963635Q180.58868999999999,611.0192727,180.78414,611.0385222Q180.97958,611.0577717,181.17384,611.0865879Q181.36811,611.115404,181.56072,611.153718Q181.75334,611.192031,181.94384,611.23975Q182.1343,611.287469,182.3223,611.344477Q182.5102,611.401486,182.6951,611.467647Q182.88,611.533809,183.0615,611.608964Q183.2429,611.684118,183.4204,611.768086Q183.598,611.852053,183.7712,611.94463Q183.9444,612.03721,184.1128,612.13817Q184.2813,612.23914,184.4446,612.34824Q184.6079,612.45735,184.7656,612.57434Q184.9233,612.69133,185.0751,612.81592Q185.227,612.9405,185.3725,613.07239Q185.518,613.20428,185.6569,613.34315Q185.7957,613.48201,185.9276,613.62753Q186.0595,613.77304,186.1841,613.92485Q186.3087,614.07666,186.4257,614.23441Q186.5426,614.39215,186.6518,614.55544Q186.7609,614.71873,186.8618,614.88718Q186.9628,615.05563,187.0554,615.22883Q187.1479,615.40203,187.2319,615.57956Q187.3159,615.75709,187.391,615.93853Q187.46620000000001,616.11997,187.5324,616.30488Q187.5985,616.48979,187.6555,616.67772Q187.7125,616.86565,187.7602,617.05616Q187.808,617.24666,187.84629999999999,617.43928Q187.8846,617.63189,187.9134,617.82616Q187.9422,618.02042,187.9615,618.21586Q187.9807,618.41131,187.9904,618.60746Q188,618.80361,188,619ZM187,619Q187,619.17184,186.9916,619.34347Q186.9831,619.51511,186.9663,619.68612Q186.9494,619.85713,186.9242,620.02711Q186.899,620.19709,186.8655,620.36563Q186.832,620.53417,186.7902,620.70086Q186.7485,620.86755,186.6986,621.032Q186.6487,621.1964,186.5908,621.3582Q186.5329,621.52,186.4672,621.6788Q186.4014,621.8375,186.3279,621.9929Q186.2545,622.1482,186.17340000000002,622.2998Q186.0924,622.4513,186.0041,622.5987Q185.9158,622.7461,185.8203,622.889Q185.7248,623.0319,185.6225,623.1699Q185.5201,623.3079,185.4111,623.4408Q185.3021,623.5736,185.1867,623.7009Q185.0713,623.8282,184.9497,623.9497Q184.8282,624.0713,184.7009,624.1867Q184.5736,624.3021,184.4408,624.4111Q184.3079,624.5201,184.1699,624.6225Q184.0319,624.7248,183.889,624.8203Q183.7461,624.9158,183.5987,625.0041Q183.4513,625.0924,183.2998,625.1734Q183.1482,625.2545,182.9929,625.3279Q182.8375,625.4014,182.6788,625.4672Q182.52,625.5329,182.3582,625.5908Q182.1964,625.6487,182.032,625.6986Q181.86755,625.7485,181.70086,625.7902Q181.53417,625.832,181.36563,625.8655Q181.19709,625.899,181.02711,625.9242Q180.85713,625.9494,180.68612,625.9663Q180.51511,625.9831,180.34347,625.9916Q180.17184,626,180,626Q179.82816,626,179.65653,625.9916Q179.48489,625.9831,179.31388,625.9663Q179.14287,625.9494,178.97289,625.9242Q178.80291,625.899,178.63437,625.8655Q178.46583,625.832,178.29914,625.7902Q178.13245,625.7485,177.96801,625.6986Q177.80357,625.6487,177.64177,625.5908Q177.47998,625.5329,177.32122,625.4672Q177.16246,625.4014,177.00711,625.3279Q176.85177,625.2545,176.70022,625.1734Q176.54867,625.0924,176.40127999999999,625.0041Q176.25389,624.9158,176.11101,624.8203Q175.96813,624.7248,175.8301,624.6225Q175.69208,624.5201,175.55925,624.4111Q175.42641,624.3021,175.29909,624.1867Q175.17176,624.0713,175.05025,623.9497Q174.92874,623.8282,174.81334,623.7009Q174.69794,623.5736,174.58893,623.4408Q174.47991,623.3079,174.37755,623.1699Q174.27518,623.0319,174.17971,622.889Q174.08424,622.7461,173.9959,622.5987Q173.90756,622.4513,173.82655,622.2998Q173.74555,622.1482,173.67207,621.9929Q173.5986,621.8375,173.53284,621.6788Q173.46708,621.52,173.40919,621.3582Q173.3513,621.1964,173.30142,621.032Q173.25153,620.86755,173.20978,620.70086Q173.16803,620.53417,173.1345,620.36563Q173.10098,620.19709,173.07576,620.02711Q173.05055,619.85713,173.03371,619.68612Q173.01686,619.51511,173.00843,619.34347Q173,619.17184,173,619Q173,618.82816,173.00843,618.65653Q173.01686,618.48489,173.03371,618.31388Q173.05055,618.14287,173.07576,617.97289Q173.10098,617.80291,173.1345,617.63437Q173.16803,617.46583,173.20978,617.29914Q173.25153,617.13245,173.30142,616.96801Q173.3513,616.80357,173.40919,616.64177Q173.46708,616.47998,173.53284,616.32122Q173.5986,616.16246,173.67207,616.00711Q173.74555,615.85177,173.82655,615.70022Q173.90756,615.54867,173.9959,615.40128Q174.08424,615.25389,174.17971,615.11101Q174.27518,614.96813,174.37755,614.8301Q174.47991,614.69208,174.58893,614.55925Q174.69794,614.42641,174.81334,614.29909Q174.92874,614.17176,175.05025,614.05025Q175.17176,613.92874,175.29909,613.81334Q175.42641,613.69794,175.55925,613.58893Q175.69208,613.47991,175.8301,613.37755Q175.96813,613.27518,176.11101,613.17971Q176.25389,613.08424,176.40127999999999,612.9959Q176.54867,612.90756,176.70022,612.82655Q176.85177,612.74555,177.00711,612.67207Q177.16246,612.5986,177.32122,612.53284Q177.47998,612.46708,177.64177,612.40919Q177.80357,612.3513,177.96801,612.30142Q178.13245,612.25153,178.29914,612.20978Q178.46583,612.16803,178.63437,612.1345Q178.80291,612.10098,178.97289,612.07576Q179.14287,612.05055,179.31388,612.03371Q179.48489,612.01686,179.65653,612.00843Q179.82816,612,180,612Q180.17184,612,180.34347,612.00843Q180.51511,612.01686,180.68612,612.03371Q180.85713,612.05055,181.02711,612.07576Q181.19709,612.10098,181.36563,612.1345Q181.53417,612.16803,181.70086,612.20978Q181.86755,612.25154,182.032,612.30142Q182.1964,612.3513,182.3582,612.40919Q182.52,612.46708,182.6788,612.53284Q182.8375,612.5986,182.9929,612.67207Q183.1482,612.74555,183.2998,612.82655Q183.4513,612.90756,183.5987,612.9959Q183.7461,613.08424,183.889,613.17971Q184.0319,613.27518,184.1699,613.37755Q184.3079,613.47991,184.4408,613.58893Q184.5736,613.69794,184.7009,613.81334Q184.8282,613.92874,184.9497,614.05025Q185.0713,614.17176,185.1867,614.29909Q185.3021,614.42641,185.4111,614.55925Q185.5201,614.69208,185.6225,614.8301Q185.7248,614.96813,185.8203,615.11101Q185.9158,615.25389,186.0041,615.40128Q186.0924,615.54867,186.17340000000002,615.70022Q186.2545,615.85177,186.3279,616.00711Q186.4014,616.16246,186.4672,616.32122Q186.5329,616.47998,186.5908,616.64177Q186.6487,616.80357,186.6986,616.96801Q186.7485,617.13245,186.7902,617.29914Q186.832,617.46583,186.8655,617.63437Q186.899,617.80291,186.9242,617.97289Q186.9494,618.14287,186.9663,618.31388Q186.9831,618.48489,186.9916,618.65653Q187,618.82816,187,619ZM180,625Q180.14729,625,180.2944,624.9928Q180.44152,624.9855,180.5881,624.9711Q180.73468,624.9567,180.88038,624.9351Q181.02608,624.9134,181.17054,624.8847Q181.315,624.856,181.45788,624.8202Q181.60076,624.7844,181.74171,624.7416Q181.88266,624.6989,182.0213,624.6493Q182.16,624.5996,182.2961,624.5433Q182.4322,624.4869,182.5653,624.4239Q182.6985,624.361,182.8284,624.2915Q182.9583,624.2221,183.0846,624.1464Q183.211,624.0706,183.3334,623.9888Q183.45589999999999,623.907,183.5742,623.8192Q183.6925,623.7315,183.8064,623.6381Q183.9202,623.5446,184.0294,623.4457Q184.1385,623.3468,184.2426,623.2426Q184.3468,623.1385,184.4457,623.0294Q184.5446,622.9202,184.6381,622.8064Q184.7315,622.6925,184.8192,622.5742Q184.907,622.4559,184.9888,622.3334Q185.0706,622.211,185.1464,622.0846Q185.2221,621.9583,185.29149999999998,621.8284Q185.361,621.6985,185.4239,621.5653Q185.4869,621.4322,185.5433,621.2961Q185.5996,621.16,185.6493,621.0213Q185.6989,620.88266,185.7416,620.74171Q185.7844,620.60076,185.8202,620.45788Q185.856,620.315,185.8847,620.17054Q185.9134,620.02608,185.9351,619.88038Q185.9567,619.73468,185.9711,619.5881Q185.9855,619.44152,185.9928,619.2944Q186,619.14729,186,619Q186,618.85271,185.9928,618.70559Q185.9855,618.55848,185.9711,618.4119Q185.9567,618.26531,185.9351,618.11962Q185.9134,617.97392,185.8847,617.82946Q185.856,617.685,185.8202,617.54212Q185.7844,617.39924,185.7416,617.25829Q185.6989,617.11734,185.6493,616.97866Q185.5996,616.83998,185.5433,616.7039Q185.4869,616.56782,185.4239,616.43467Q185.361,616.30152,185.29149999999998,616.17162Q185.2221,616.04172,185.1464,615.91538Q185.0706,615.78905,184.9888,615.66658Q184.907,615.54411,184.8192,615.4258Q184.7315,615.3075,184.6381,615.19364Q184.5446,615.07978,184.4457,614.97065Q184.3468,614.86151,184.2426,614.75736Q184.1385,614.65321,184.0294,614.55429Q183.9202,614.45538,183.8064,614.36194Q183.6925,614.2685,183.5742,614.18075Q183.45589999999999,614.09301,183.3334,614.01118Q183.211,613.92935,183.0846,613.85363Q182.9583,613.77791,182.8284,613.70847Q182.6985,613.63904,182.5653,613.57606Q182.4322,613.51309,182.2961,613.45672Q182.16,613.40036,182.0213,613.35074Q181.88266,613.30111,181.74171,613.25836Q181.60076,613.2156,181.45788,613.17981Q181.315,613.14402,181.17054,613.11529Q181.02608,613.08655,180.88038,613.06494Q180.73468,613.04333,180.5881,613.02889Q180.44152,613.01445,180.2944,613.00723Q180.14729,613,180,613Q179.85271,613,179.70559,613.00723Q179.55848,613.01445,179.4119,613.02889Q179.26531,613.04333,179.11962,613.06494Q178.97392,613.08655,178.82946,613.11529Q178.685,613.14402,178.54212,613.17981Q178.39924,613.2156,178.25829,613.25836Q178.11734,613.30111,177.97866,613.35074Q177.83998,613.40036,177.7039,613.45672Q177.56782,613.51309,177.43467,613.57606Q177.30152,613.63904,177.17162,613.70847Q177.04172,613.77791,176.91538,613.85363Q176.78905,613.92935,176.66658,614.01118Q176.54411,614.09301,176.4258,614.18075Q176.3075,614.2685,176.19364,614.36194Q176.07978,614.45538,175.97065,614.55429Q175.86151,614.65321,175.75736,614.75736Q175.65321,614.86151,175.55429,614.97065Q175.45538,615.07978,175.36194,615.19364Q175.2685,615.3075,175.18075,615.4258Q175.09301,615.54411,175.01118,615.66658Q174.92935,615.78905,174.85363,615.91538Q174.7779,616.04172,174.70847,616.17162Q174.63904,616.30152,174.57606,616.43467Q174.51309,616.56782,174.45672,616.7039Q174.40036,616.83998,174.35074,616.97866Q174.30111,617.11734,174.25836,617.25829Q174.2156,617.39924,174.17981,617.54212Q174.14402,617.685,174.11529,617.82946Q174.08655,617.97392,174.06494,618.11962Q174.04333,618.26531,174.02889,618.4119Q174.01445,618.55848,174.00723,618.70559Q174,618.85271,174,619Q174,619.14729,174.00723,619.2944Q174.01445,619.44152,174.02889,619.5881Q174.04333,619.73468,174.06494,619.88038Q174.08655,620.02608,174.11529,620.17054Q174.14402,620.315,174.17981,620.45788Q174.2156,620.60076,174.25836,620.74171Q174.30111,620.88266,174.35074,621.0213Q174.40036,621.16,174.45672,621.2961Q174.51309,621.4322,174.57606,621.5653Q174.63904,621.6985,174.70847,621.8284Q174.7779,621.9583,174.85363,622.0846Q174.92935,622.211,175.01118,622.3334Q175.09301,622.4559,175.18075,622.5742Q175.2685,622.6925,175.36194,622.8064Q175.45538,622.9202,175.55429,623.0294Q175.65321,623.1385,175.75736,623.2426Q175.86151,623.3468,175.97065,623.4457Q176.07978,623.5446,176.19364,623.6381Q176.3075,623.7315,176.4258,623.8192Q176.54411,623.907,176.66658,623.9888Q176.78905,624.0706,176.91538,624.1464Q177.04172,624.2221,177.17162,624.2915Q177.30152,624.361,177.43467,624.4239Q177.56782,624.4869,177.7039,624.5433Q177.83998,624.5996,177.97866,624.6493Q178.11734,624.6989,178.25829,624.7416Q178.39924,624.7844,178.54212,624.8202Q178.685,624.856,178.82946,624.8847Q178.97392,624.9134,179.11962,624.9351Q179.26531,624.9567,179.4119,624.9711Q179.55848,624.9855,179.70559,624.9928Q179.85271,625,180,625Z" fill-rule="evenodd" fill="#FFFFFF" fill-opacity="1"/></g></g><g><g><g filter="url(#master_svg1_0_845)"><rect x="0" y="23" width="360" height="56" rx="0" fill="#6200EE" fill-opacity="1"/></g></g><g><path d="M27.0684,52.6582Q26.875,54.7031,25.55664,55.851600000000005Q24.23828,57,22.04688,57Q20.51758,57,19.35156,56.2969Q18.19141,55.5938,17.55859,54.2988Q16.925781,53.0039,16.896484,51.2871L16.896484,50.1328Q16.896484,48.375,17.53516,47.03906Q18.17969,45.69727,19.38086,44.97656Q20.58203,44.25,22.15234,44.25Q24.27344,44.25,25.5625,45.4043Q26.8574,46.55859,27.0684,48.65625L24.85352,48.65625Q24.69531,47.2793,24.044919999999998,46.66992Q23.40039,46.05469,22.15234,46.05469Q20.70508,46.05469,19.92578,47.06836Q19.14648,48.08203,19.12891,50.0449L19.12891,51.1348Q19.12891,53.1211,19.87305,54.1641Q20.61719,55.207,22.04688,55.207Q23.35938,55.207,24.01562,54.6211Q24.67773,54.0293,24.85352,52.6582L27.0684,52.6582ZM33.060199999999995,57Q31.027,57,29.767200000000003,55.7344Q28.5074,54.4688,28.5074,52.3711L28.5074,52.1074Q28.5074,50.7012,29.052300000000002,49.5938Q29.603099999999998,48.48633,30.593400000000003,47.87109Q31.5895,47.25,32.814099999999996,47.25Q34.7535,47.25,35.814099999999996,48.50977Q36.8746,49.7637,36.8746,52.0664L36.8746,52.9395L30.6578,52.9395Q30.7574,54.0293,31.442999999999998,54.6621Q32.1344,55.2949,33.1832,55.2949Q34.647999999999996,55.2949,35.5738,54.1406L36.722300000000004,55.224599999999995Q36.1539,56.0684,35.1988,56.537099999999995Q34.243700000000004,57,33.060199999999995,57ZM32.8023,48.9668Q31.9234,48.9668,31.3844,49.6055Q30.8453,50.2383,30.692999999999998,51.375L34.7652,51.375L34.7652,51.2109Q34.694900000000004,50.1035,34.191,49.5352Q33.693,48.9668,32.8023,48.9668ZM45.1047,48.97266L40.9738,48.97266L40.9738,57L38.846900000000005,57L38.846900000000005,47.25L45.1047,47.25L45.1047,48.97266ZM46.0223,52.0371Q46.0223,50.6543,46.573,49.5469Q47.1297,48.43945,48.1316,47.84766Q49.1336,47.25,50.4344,47.25Q52.3562,47.25,53.5574,48.47461Q54.7586,49.6992,54.8523,51.7266L54.8641,52.2188Q54.8641,53.6133,54.3191,54.709Q53.7801,55.7988,52.7723,56.4023Q51.7703,57,50.452,57Q48.4363,57,47.229299999999995,55.675799999999995Q46.0223,54.3516,46.0223,52.1426L46.0223,52.0371ZM48.1551,52.2188Q48.1551,53.666,48.7586,54.4805Q49.368,55.2949,50.4461,55.2949Q51.5301,55.2949,52.1336,54.4688Q52.7371,53.6367,52.7371,52.043Q52.7371,50.625,52.116,49.7988Q51.4949,48.9668,50.4344,48.9668Q49.3855,48.9668,48.7703,49.7812Q48.1551,50.5957,48.1551,52.2188ZM56.7367,55.2949Q57.6215,54.2695,57.9262,53.3496Q58.2309,52.4297,58.2895,51L58.4125,47.25L65.01599999999999,47.25L65.01599999999999,55.2949L66.3344,55.2949L66.3344,60L64.2074,60L64.2074,57L58.1078,57L58.1078,60L55.9457,60L55.9516,55.2949L56.7367,55.2949ZM59.2387,55.2949L62.8891,55.2949L62.8891,49.0898L60.4867,49.0898L60.4281,50.9824Q60.3051,53.707,59.2387,55.2949ZM76.1523,57L74.0137,57L74.0137,53.0801L70.3164,53.0801L70.3164,57L68.1777,57L68.1777,47.25L70.3164,47.25L70.3164,51.375L74.0137,51.375L74.0137,47.25L76.1523,47.25L76.1523,57ZM86.3629,47.25L86.3629,57L84.2359,57L84.2359,53.332L82.2379,53.332L80.2105,57L77.9957,57L80.234,52.9805Q79.3551,52.6055,78.8863,51.9141Q78.4176,51.2227,78.4176,50.3262Q78.4176,48.98438,79.4371,48.12891Q80.4625,47.26758,82.2027,47.25L86.3629,47.25ZM80.5504,50.3789Q80.5504,50.9883,80.9957,51.3691Q81.441,51.75,82.1324,51.75L84.2359,51.75L84.2359,48.94922L82.2672,48.94922Q81.482,48.94922,81.0133,49.3535Q80.5504,49.7578,80.5504,50.3789Z" fill="#FFFFFF" fill-opacity="1"/></g><g><path d="M114.4609,57L112.24609,57L112.24609,51.2871L106.52734,51.2871L106.52734,57L104.30078,57L104.30078,44.25L106.52734,44.25L106.52734,49.5L112.24609,49.5L112.24609,44.25L114.4609,44.25L114.4609,57ZM121.1852,57Q119.152,57,117.8922,55.7344Q116.6324,54.4688,116.6324,52.3711L116.6324,52.1074Q116.6324,50.7012,117.1773,49.5938Q117.7281,48.48633,118.7184,47.87109Q119.7145,47.25,120.9391,47.25Q122.8785,47.25,123.9391,48.50977Q124.9996,49.7637,124.9996,52.0664L124.9996,52.9395L118.7828,52.9395Q118.8824,54.0293,119.568,54.6621Q120.2594,55.2949,121.3082,55.2949Q122.773,55.2949,123.6988,54.1406L124.8473,55.224599999999995Q124.2789,56.0684,123.3238,56.537099999999995Q122.3687,57,121.1852,57ZM120.9273,48.9668Q120.0484,48.9668,119.5094,49.6055Q118.9703,50.2383,118.818,51.375L122.8902,51.375L122.8902,51.2109Q122.8199,50.1035,122.316,49.5352Q121.818,48.9668,120.9273,48.9668ZM126.9367,55.2949Q127.8215,54.2695,128.1262,53.3496Q128.4309,52.4297,128.4895,51L128.6125,47.25L135.216,47.25L135.216,55.2949L136.5344,55.2949L136.5344,60L134.4074,60L134.4074,57L128.3078,57L128.3078,60L126.1457,60L126.1516,55.2949L126.9367,55.2949ZM129.4387,55.2949L133.0891,55.2949L133.0891,49.0898L130.6867,49.0898L130.6281,50.9824Q130.5051,53.707,129.4387,55.2949ZM142.4852,57Q140.452,57,139.1922,55.7344Q137.9324,54.4688,137.9324,52.3711L137.9324,52.1074Q137.9324,50.7012,138.4773,49.5938Q139.0281,48.48633,140.01839999999999,47.87109Q141.0145,47.25,142.2391,47.25Q144.17849999999999,47.25,145.2391,48.50977Q146.2996,49.7637,146.2996,52.0664L146.2996,52.9395L140.0828,52.9395Q140.1824,54.0293,140.868,54.6621Q141.55939999999998,55.2949,142.6082,55.2949Q144.073,55.2949,144.99880000000002,54.1406L146.1473,55.224599999999995Q145.5789,56.0684,144.62380000000002,56.537099999999995Q143.6688,57,142.4852,57ZM142.2273,48.9668Q141.3484,48.9668,140.80939999999998,49.6055Q140.2703,50.2383,140.118,51.375L144.1902,51.375L144.1902,51.2109Q144.1199,50.1035,143.61599999999999,49.5352Q143.118,48.9668,142.2273,48.9668ZM156.2758,47.25L156.2758,57L154.143,57L154.143,48.97266L151.4535,48.97266L151.2777,52.3887Q151.1078,54.8555,150.3578,55.9277Q149.6078,57,148.0609,57L147.3988,57L147.393,55.224599999999995L147.8324,55.1777Q148.5355,55.0781,148.852,54.2988Q149.17419999999998,53.5137,149.2621,51.4395L149.4379,47.25L156.2758,47.25ZM166.4629,47.25L166.4629,57L164.3359,57L164.3359,53.332L162.3379,53.332L160.3106,57L158.0957,57L160.334,52.9805Q159.45510000000002,52.6055,158.9863,51.9141Q158.51760000000002,51.2227,158.51760000000002,50.3262Q158.51760000000002,48.98438,159.5371,48.12891Q160.5625,47.26758,162.30270000000002,47.25L166.4629,47.25ZM160.6504,50.3789Q160.6504,50.9883,161.0957,51.3691Q161.541,51.75,162.23239999999998,51.75L164.3359,51.75L164.3359,48.94922L162.3672,48.94922Q161.582,48.94922,161.1133,49.3535Q160.6504,49.7578,160.6504,50.3789Z" fill="#FFFFFF" fill-opacity="1"/></g><g clip-path="url(#master_svg2_0_852)"><g></g><g><path d="M333,46C333,46,331,46,331,46C331,46,331,50,331,50C331,50,327,50,327,50C327,50,327,52,327,52C327,52,331,52,331,52C331,52,331,56,331,56C331,56,333,56,333,56C333,56,333,52,333,52C333,52,337,52,337,52C337,52,337,50,337,50C337,50,333,50,333,50C333,50,333,46,333,46C333,46,333,46,333,46ZM332,41C326.48,41,322,45.480000000000004,322,51C322,56.519999999999996,326.48,61,332,61C337.52,61,342,56.519999999999996,342,51C342,45.480000000000004,337.52,41,332,41C332,41,332,41,332,41ZM332,59C327.59,59,324,55.41,324,51C324,46.59,327.59,43,332,43C336.41,43,340,46.59,340,51C340,55.41,336.41,59,332,59C332,59,332,59,332,59Z" fill="#FFFFFF" fill-opacity="0.7599999904632568"/></g></g></g><g><line x1="16" y1="64.5" x2="87.00704956054688" y2="64.5" fill-opacity="0" stroke-opacity="1" stroke="#FFFFFF" fill="none" stroke-width="1"/></g><g clip-path="url(#master_svg3_0_856)"><g><path d="M25.82812,127.5L23.9375,127.5L23.9375,118.47396L21.14583,119.4375L21.14583,117.83333L25.58333,116.16667L25.82812,116.16667L25.82812,127.5ZM36.1094,123.5L37.5208,123.5L37.5208,125.026L36.1094,125.026L36.1094,127.5L34.2083,127.5L34.2083,125.026L29.2969,125.026L29.2396,123.8698L34.1458,116.16667L36.1094,116.16667L36.1094,123.5ZM31.2344,123.5L34.2083,123.5L34.2083,118.72917L34.0677,118.97917L31.2344,123.5ZM39.947900000000004,125.4115Q40.4792,125.4115,40.7656,125.7135Q41.0573,126.0156,41.0573,126.4688Q41.0573,126.9115,40.7656,127.2083Q40.4792,127.5,39.947900000000004,127.5Q39.4427,127.5,39.1458,127.2135Q38.849000000000004,126.9219,38.849000000000004,126.4688Q38.849000000000004,126.0156,39.135400000000004,125.7135Q39.427099999999996,125.4115,39.947900000000004,125.4115ZM39.947900000000004,118.74479Q40.4792,118.74479,40.7656,119.04688Q41.0573,119.34896,41.0573,119.80208Q41.0573,120.24479,40.7656,120.54167Q40.4792,120.83333,39.947900000000004,120.83333Q39.4427,120.83333,39.1458,120.54688Q38.849000000000004,120.25521,38.849000000000004,119.80208Q38.849000000000004,119.34896,39.135400000000004,119.04688Q39.427099999999996,118.74479,39.947900000000004,118.74479ZM50.4323,122.7031Q50.4323,125.0833,49.5156,126.2917Q48.599,127.5,46.724000000000004,127.5Q44.8802,127.5,43.9427,126.3229Q43.010400000000004,125.1458,42.989599999999996,122.8333L42.989599999999996,120.92188Q42.989599999999996,118.54688,43.9062,117.35938Q44.822900000000004,116.16667,46.7083,116.16667Q48.5729,116.16667,49.4896,117.32812Q50.4115,118.48438,50.4323,120.79688L50.4323,122.7031ZM48.5365,120.65625Q48.5365,119.125,48.099,118.41146Q47.661500000000004,117.69271,46.7083,117.69271Q45.775999999999996,117.69271,45.338499999999996,118.36979Q44.900999999999996,119.04688,44.8802,120.48438L44.8802,122.9583Q44.8802,124.4844,45.322900000000004,125.2344Q45.7708,125.9844,46.724000000000004,125.9844Q47.635400000000004,125.9844,48.0729,125.2917Q48.5104,124.599,48.5365,123.125L48.5365,120.65625ZM59.4323,122.7031Q59.4323,125.0833,58.5156,126.2917Q57.599,127.5,55.724,127.5Q53.8802,127.5,52.9427,126.3229Q52.0104,125.1458,51.9896,122.8333L51.9896,120.92188Q51.9896,118.54688,52.9062,117.35938Q53.8229,116.16667,55.7083,116.16667Q57.5729,116.16667,58.4896,117.32812Q59.4115,118.48438,59.4323,120.79688L59.4323,122.7031ZM57.5365,120.65625Q57.5365,119.125,57.099,118.41146Q56.6615,117.69271,55.7083,117.69271Q54.776,117.69271,54.3385,118.36979Q53.901,119.04688,53.8802,120.48438L53.8802,122.9583Q53.8802,124.4844,54.3229,125.2344Q54.7708,125.9844,55.724,125.9844Q56.6354,125.9844,57.0729,125.2917Q57.5104,124.599,57.5365,123.125L57.5365,120.65625Z" fill="#5C5EB3" fill-opacity="1"/></g><g><path d="M81.15755,118L81.15755,108.08333L84.41146,108.08333Q86.0293,108.08333,86.84505,108.73047Q87.66535999999999,109.3776,87.66535999999999,110.64453Q87.66535999999999,111.31901,87.26888,111.83854Q86.8724,112.35807,86.1888,112.64062Q86.99544,112.87305,87.46029,113.5202Q87.92969,114.1673,87.92969,115.0605Q87.92969,116.4323,87.05924,117.2161Q86.19336,118,84.60742,118L81.15755,118ZM82.47005,113.21940000000001L82.47005,116.9245L84.63477,116.9245Q85.55078,116.9245,86.07943,116.4323Q86.61263,115.9401,86.61263,115.0788Q86.61263,113.21940000000001,84.65755,113.21940000000001L82.47005,113.21940000000001ZM82.47005,112.16667L84.45247,112.16667Q85.3138,112.16667,85.82878,111.76107Q86.34375,111.35091,86.34375,110.64909Q86.34375,109.86979,85.86523,109.51888Q85.38672,109.16341,84.41146,109.16341L82.47005,109.16341L82.47005,112.16667ZM92.6738,116.9655Q93.3529,116.9655,93.8587,116.5553Q94.3646,116.1452,94.41929999999999,115.5299L95.6133,115.5299Q95.5814,116.168,95.1758,116.7422Q94.7747,117.3164,94.1003,117.6582Q93.4258,118,92.6738,118Q91.1654,118,90.2721,117.002Q89.37891,116.0039,89.37891,114.2767L89.37891,114.0671Q89.37891,113.0007,89.77539,112.17122Q90.1719,111.33724,90.9147,110.87695Q91.6576,110.41667,92.66929999999999,110.41667Q93.9134,110.41667,94.7337,111.16406Q95.5586,111.90690000000001,95.6133,113.0964L94.41929999999999,113.0964Q94.3646,112.3763,93.8724,111.91602Q93.3848,111.45573,92.66929999999999,111.45573Q91.7031,111.45573,91.1745,112.13932Q90.6458,112.82292,90.6458,114.1126L90.6458,114.3496Q90.6458,115.6074,91.1699,116.2865Q91.6986,116.9655,92.6738,116.9655ZM102.4948,111.44206L100.0156,111.44206L100.0156,118L98.7487,118L98.7487,111.44206L96.3151,111.44206L96.3151,110.41667L102.4948,110.41667L102.4948,111.44206ZM109.9551,114.2904Q109.9551,115.9583,109.1803,116.9792Q108.4102,118,107.09309999999999,118Q105.7441,118,104.974,117.15690000000001L104.974,120.91669999999999L103.707,120.91669999999999L103.707,110.41667L104.8646,110.41667L104.9238,111.36458Q105.6986,110.41667,107.0703,110.41667Q108.40559999999999,110.41667,109.1803,111.41016Q109.9551,112.40365,109.9551,114.1764L109.9551,114.2904ZM108.6927,114.1491Q108.6927,112.91862,108.15950000000001,112.20768Q107.6263,111.49219,106.6966,111.49219Q105.54820000000001,111.49219,104.974,112.49479L104.974,115.972Q105.5391,116.9655,106.7103,116.9655Q107.6172,116.9655,108.1549,116.2591Q108.6927,115.5482,108.6927,114.1491ZM114.6536,118Q113.1497,118,112.2064,117.0247Q111.263,116.0449,111.263,114.4089L111.263,114.181Q111.263,113.0918,111.6823,112.23958Q112.10159999999999,111.38281,112.85810000000001,110.89974Q113.6146,110.41667,114.4941,110.41667Q115.9388,110.41667,116.7363,111.37826Q117.5384,112.33984,117.5384,114.1309L117.5384,114.6641L112.52539999999999,114.6641Q112.5527,115.694,113.1634,116.332Q113.7786,116.9655,114.72200000000001,116.9655Q115.39189999999999,116.9655,115.85679999999999,116.7012Q116.32159999999999,116.4323,116.668,115.9948L117.4427,116.5872Q116.513,118,114.6536,118ZM114.4941,111.45573Q113.7285,111.45573,113.209,112.02539Q112.68950000000001,112.59505,112.5664,113.625L116.2715,113.625L116.2715,113.5293Q116.2168,112.54037,115.75200000000001,111.99805Q115.28710000000001,111.45573,114.4941,111.45573ZM124.3698,111.44206L121.8906,111.44206L121.8906,118L120.6237,118L120.6237,111.44206L118.1901,111.44206L118.1901,110.41667L124.3698,110.41667L124.3698,111.44206ZM130.3672,110.41667L131.6341,110.41667L131.6341,118L130.3672,118L130.3672,112.47201L126.95830000000001,118L125.6914,118L125.6914,110.41667L126.95830000000001,110.41667L126.95830000000001,115.9538L130.3672,110.41667ZM139.2448,111.44206L136.7656,111.44206L136.7656,118L135.49869999999999,118L135.49869999999999,111.44206L133.0651,111.44206L133.0651,110.41667L139.2448,110.41667L139.2448,111.44206ZM141.8379,113.0417L143.7611,113.0417Q145.0189,113.0553,145.748,113.7161Q146.48180000000002,114.3724,146.48180000000002,115.498Q146.48180000000002,116.6283,145.7298,117.3164Q144.9779,118,143.7064,118L140.5755,118L140.5755,110.41667L141.8379,110.41667L141.8379,113.0417ZM141.8379,114.0762L141.8379,116.9655L143.72,116.9655Q144.43099999999998,116.9655,144.8184,116.5872Q145.21030000000002,116.20439999999999,145.21030000000002,115.5436Q145.21030000000002,114.90559999999999,144.8275,114.5Q144.44920000000002,114.0898,143.7656,114.0762L141.8379,114.0762ZM151.0072,116.9655Q151.68619999999999,116.9655,152.19209999999998,116.5553Q152.6979,116.1452,152.7526,115.5299L153.9466,115.5299Q153.91469999999998,116.168,153.5091,116.7422Q153.10809999999998,117.3164,152.4336,117.6582Q151.7591,118,151.0072,118Q149.49869999999999,118,148.6055,117.002Q147.7122,116.0039,147.7122,114.2767L147.7122,114.0671Q147.7122,113.0007,148.1087,112.17122Q148.5052,111.33724,149.248,110.87695Q149.9909,110.41667,151.0026,110.41667Q152.2467,110.41667,153.06709999999998,111.16406Q153.89190000000002,111.90690000000001,153.9466,113.0964L152.7526,113.0964Q152.6979,112.3763,152.20569999999998,111.91602Q151.7181,111.45573,151.0026,111.45573Q150.0365,111.45573,149.5078,112.13932Q148.9792,112.82292,148.9792,114.1126L148.9792,114.3496Q148.9792,115.6074,149.5033,116.2865Q150.0319,116.9655,151.0072,116.9655ZM160.9876,110.41667L160.9876,118L159.71609999999998,118L159.71609999999998,114.95570000000001L157.8066,114.95570000000001L156.0658,118L154.6986,118L156.55790000000002,114.7643Q155.84699999999998,114.5046,155.4642,113.9577Q155.08589999999998,113.4108,155.08589999999998,112.68164Q155.08589999999998,111.66537,155.8424,111.04557Q156.6035,110.42578,157.875,110.41667L160.9876,110.41667ZM156.35739999999998,112.69531Q156.35739999999998,113.2422,156.72660000000002,113.5749Q157.0957,113.9076,157.7064,113.9167L159.71609999999998,113.9167L159.71609999999998,111.44206L157.89780000000002,111.44206Q157.1914,111.44206,156.7721,111.79297Q156.35739999999998,112.13932,156.35739999999998,112.69531ZM169.3822,116.9655Q170.06119999999999,116.9655,170.56709999999998,116.5553Q171.0729,116.1452,171.1276,115.5299L172.3216,115.5299Q172.28969999999998,116.168,171.8841,116.7422Q171.48309999999998,117.3164,170.8086,117.6582Q170.1341,118,169.3822,118Q167.87369999999999,118,166.9805,117.002Q166.0872,116.0039,166.0872,114.2767L166.0872,114.0671Q166.0872,113.0007,166.4837,112.17122Q166.8802,111.33724,167.623,110.87695Q168.3659,110.41667,169.3776,110.41667Q170.6217,110.41667,171.44209999999998,111.16406Q172.26690000000002,111.90690000000001,172.3216,113.0964L171.1276,113.0964Q171.0729,112.3763,170.58069999999998,111.91602Q170.0931,111.45573,169.3776,111.45573Q168.4115,111.45573,167.8828,112.13932Q167.3542,112.82292,167.3542,114.1126L167.3542,114.3496Q167.3542,115.6074,167.8783,116.2865Q168.4069,116.9655,169.3822,116.9655ZM183.25900000000001,118L181.99200000000002,118L181.99200000000002,111.46484L178.5879,111.46484L178.5879,118L177.3164,118L177.3164,110.41667L183.25900000000001,110.41667L183.25900000000001,118ZM191.622,114.2904Q191.622,115.9583,190.84699999999998,116.9792Q190.077,118,188.76,118Q187.411,118,186.64100000000002,117.15690000000001L186.64100000000002,120.91669999999999L185.374,120.91669999999999L185.374,110.41667L186.531,110.41667L186.59,111.36458Q187.365,110.41667,188.737,110.41667Q190.072,110.41667,190.84699999999998,111.41016Q191.622,112.40365,191.622,114.1764L191.622,114.2904ZM190.35899999999998,114.1491Q190.35899999999998,112.91862,189.826,112.20768Q189.293,111.49219,188.363,111.49219Q187.215,111.49219,186.64100000000002,112.49479L186.64100000000002,115.972Q187.20600000000002,116.9655,188.377,116.9655Q189.284,116.9655,189.822,116.2591Q190.35899999999998,115.5482,190.35899999999998,114.1491ZM196.32,118Q194.816,118,193.873,117.0247Q192.93,116.0449,192.93,114.4089L192.93,114.181Q192.93,113.0918,193.349,112.23958Q193.768,111.38281,194.525,110.89974Q195.281,110.41667,196.161,110.41667Q197.60500000000002,110.41667,198.40300000000002,111.37826Q199.20499999999998,112.33984,199.20499999999998,114.1309L199.20499999999998,114.6641L194.192,114.6641Q194.219,115.694,194.82999999999998,116.332Q195.445,116.9655,196.389,116.9655Q197.059,116.9655,197.523,116.7012Q197.988,116.4323,198.33499999999998,115.9948L199.10899999999998,116.5872Q198.18,118,196.32,118ZM196.161,111.45573Q195.39499999999998,111.45573,194.876,112.02539Q194.356,112.59505,194.233,113.625L197.938,113.625L197.938,113.5293Q197.88299999999998,112.54037,197.41899999999998,111.99805Q196.954,111.45573,196.161,111.45573ZM200.481,116.9655L200.91899999999998,116.4095Q201.65699999999998,115.4251,201.757,113.4564L201.876,110.41667L206.638,110.41667L206.638,116.9655L207.59,116.9655L207.59,120.04169999999999L206.324,120.04169999999999L206.324,118L201.16500000000002,118L201.16500000000002,120.04169999999999L199.898,120.04169999999999L199.90699999999998,116.9655L200.481,116.9655ZM201.976,116.9655L205.376,116.9655L205.376,111.58789L203.09699999999998,111.58789L203.024,113.4154Q202.906,115.6986,201.976,116.9655ZM211.965,116.9655Q212.645,116.9655,213.15,116.5553Q213.656,116.1452,213.711,115.5299L214.905,115.5299Q214.873,116.168,214.467,116.7422Q214.066,117.3164,213.392,117.6582Q212.717,118,211.965,118Q210.457,118,209.564,117.002Q208.671,116.0039,208.671,114.2767L208.671,114.0671Q208.671,113.0007,209.067,112.17122Q209.464,111.33724,210.206,110.87695Q210.949,110.41667,211.961,110.41667Q213.205,110.41667,214.025,111.16406Q214.85,111.90690000000001,214.905,113.0964L213.711,113.0964Q213.656,112.3763,213.164,111.91602Q212.676,111.45573,211.961,111.45573Q210.995,111.45573,210.466,112.13932Q209.937,112.82292,209.937,114.1126L209.937,114.3496Q209.937,115.6074,210.462,116.2865Q210.99,116.9655,211.965,116.9655ZM221.786,111.44206L219.307,111.44206L219.307,118L218.04,118L218.04,111.44206L215.607,111.44206L215.607,110.41667L221.786,110.41667L221.786,111.44206ZM227.565,118Q227.456,117.7448,227.387,117.09309999999999Q226.508,118,225.282,118Q224.188,118,223.486,117.3757Q222.789,116.7513,222.789,115.7897Q222.789,114.623,223.664,113.9805Q224.544,113.3333,226.139,113.3333L227.369,113.3333L227.369,112.79102Q227.369,112.17122,226.973,111.80664Q226.576,111.4375,225.801,111.4375Q225.127,111.4375,224.667,111.75195Q224.211,112.06184999999999,224.211,112.50846L222.939,112.50846Q222.939,111.97982,223.331,111.48763Q223.723,110.99089000000001,224.398,110.70378Q225.072,110.41667,225.879,110.41667Q227.155,110.41667,227.88,111.05925Q228.604,111.70182,228.632,112.83203L228.632,116.2591Q228.632,117.2845,228.891,117.8906L228.891,118L227.565,118ZM225.469,116.8971Q226.061,116.8971,226.594,116.5872Q227.128,116.2728,227.369,115.7715L227.369,114.2311L226.376,114.2311Q224.051,114.2311,224.051,115.612Q224.051,116.21809999999999,224.448,116.5599Q224.844,116.8971,225.469,116.8971ZM230.701,118L230.701,110.41667L233.585,110.41667Q235.062,110.41667,235.85,110.9043Q236.639,111.38737,236.639,112.32162Q236.639,112.80469,236.329,113.1921Q236.023,113.57939999999999,235.422,113.7845Q236.092,113.9577,236.497,114.46809999999999Q236.908,114.974,236.908,115.6758Q236.908,116.806,236.156,117.403Q235.408,118,234.041,118L230.701,118ZM231.963,114.3451L231.963,116.9792L234.055,116.9792Q234.848,116.9792,235.24,116.6328Q235.636,116.2865,235.636,115.653Q235.636,114.3451,234.009,114.3451L231.963,114.3451ZM231.963,113.3333L233.599,113.3333Q235.376,113.3333,235.376,112.40365Q235.376,111.47396,233.695,111.44206L231.963,111.44206L231.963,113.3333ZM243.242,110.41667L244.509,110.41667L244.509,118L243.242,118L243.242,112.47201L239.833,118L238.566,118L238.566,110.41667L239.833,110.41667L239.833,115.9538L243.242,110.41667ZM252.12,111.44206L249.641,111.44206L249.641,118L248.374,118L248.374,111.44206L245.94,111.44206L245.94,110.41667L252.12,110.41667L252.12,111.44206ZM256.404,118Q254.9,118,253.956,117.0247Q253.013,116.0449,253.013,114.4089L253.013,114.181Q253.013,113.0918,253.432,112.23958Q253.852,111.38281,254.608,110.89974Q255.365,110.41667,256.244,110.41667Q257.68899999999996,110.41667,258.486,111.37826Q259.288,112.33984,259.288,114.1309L259.288,114.6641L254.275,114.6641Q254.303,115.694,254.913,116.332Q255.529,116.9655,256.472,116.9655Q257.142,116.9655,257.60699999999997,116.7012Q258.072,116.4323,258.418,115.9948L259.193,116.5872Q258.26300000000003,118,256.404,118ZM256.244,111.45573Q255.479,111.45573,254.959,112.02539Q254.439,112.59505,254.316,113.625L258.02099999999996,113.625L258.02099999999996,113.5293Q257.967,112.54037,257.502,111.99805Q257.03700000000003,111.45573,256.244,111.45573ZM266.68899999999996,110.41667L266.68899999999996,118L265.418,118L265.418,111.46484L262.902,111.46484L262.752,114.3132Q262.629,116.2773,262.10900000000004,117.1204Q261.594,117.9635,260.473,118L259.967,118L259.967,116.8835L260.332,116.8561Q260.947,116.7832,261.212,116.1224Q261.48,115.4616,261.553,113.6751L261.69,110.41667L266.68899999999996,110.41667ZM274.446,110.41667L274.446,118L273.174,118L273.174,114.95570000000001L271.265,114.95570000000001L269.524,118L268.15700000000004,118L270.01599999999996,114.7643Q269.305,114.5046,268.923,113.9577Q268.544,113.4108,268.544,112.68164Q268.544,111.66537,269.301,111.04557Q270.062,110.42578,271.33299999999997,110.41667L274.446,110.41667ZM269.81600000000003,112.69531Q269.81600000000003,113.2422,270.185,113.5749Q270.554,113.9076,271.16499999999996,113.9167L273.174,113.9167L273.174,111.44206L271.356,111.44206Q270.65,111.44206,270.23,111.79297Q269.81600000000003,112.13932,269.81600000000003,112.69531ZM280.635,116.28190000000001L283.15,110.41667L284.727,110.41667L284.727,118L283.46500000000003,118L283.46500000000003,112.48568L281.072,118L280.197,118L277.755,112.36719L277.755,118L276.49199999999996,118L276.49199999999996,110.41667L278.13300000000004,110.41667L280.635,116.28190000000001ZM291.659,110.41667L292.926,110.41667L292.926,118L291.659,118L291.659,112.47201L288.25,118L286.983,118L286.983,110.41667L288.25,110.41667L288.25,115.9538L291.659,110.41667ZM299.48400000000004,107.20833L300.20799999999997,107.68684999999999Q299.575,108.53451,299.552,109.50977L299.552,110.41667L298.294,110.41667L298.294,109.64648Q298.294,108.96745,298.627,108.30208Q298.96000000000004,107.63216,299.48400000000004,107.20833ZM301.639,107.20833L302.36400000000003,107.68684999999999Q301.73,108.53451,301.70799999999997,109.50977L301.70799999999997,110.41667L300.45,110.41667L300.45,109.64648Q300.45,108.96745,300.783,108.30208Q301.115,107.63216,301.639,107.20833ZM88.47656,134.70510000000002Q88.29427,136.2819,87.3099,137.1432Q86.33008,138,84.70312,138Q82.93945,138,81.8776,136.7741Q80.815755,135.5482,80.815755,133.4928L80.815755,132.5632Q80.815755,131.2188,81.30794,130.1979Q81.80469,129.1771,82.71159,128.6302Q83.62305,128.0833,84.82160999999999,128.0833Q86.40755,128.0833,87.36458,128.9674Q88.32160999999999,129.8516,88.47656,131.4193L87.1595,131.4193Q86.98633,130.2298,86.41667,129.6966Q85.847,129.1634,84.82160999999999,129.1634Q83.5638,129.1634,82.84831,130.0566Q82.13281,130.9499,82.13281,132.5996L82.13281,133.5247Q82.13281,135.0833,82.80729,136.0039Q83.48633,136.9245,84.70312,136.9245Q85.79688,136.9245,86.38021,136.4323Q86.96809999999999,135.9355,87.1595,134.70510000000002L88.47656,134.70510000000002ZM93.0703,138Q91.5664,138,90.623,137.0247Q89.67969,136.04489999999998,89.67969,134.4089L89.67969,134.181Q89.67969,133.0918,90.099,132.2396Q90.51820000000001,131.3828,91.2747,130.8997Q92.0312,130.4167,92.9108,130.4167Q94.3555,130.4167,95.153,131.3783Q95.9551,132.3398,95.9551,134.1309L95.9551,134.6641L90.9421,134.6641Q90.96940000000001,135.69400000000002,91.5801,136.332Q92.1953,136.9655,93.1387,136.9655Q93.8086,136.9655,94.2734,136.7012Q94.7383,136.4323,95.0846,135.9948L95.8594,136.5872Q94.9297,138,93.0703,138ZM92.9108,131.4557Q92.1452,131.4557,91.6257,132.0254Q91.1061,132.5951,90.98310000000001,133.625L94.6882,133.625L94.6882,133.5293Q94.6335,132.5404,94.1686,131.998Q93.7038,131.4557,92.9108,131.4557ZM103.3561,130.4167L103.3561,138L102.0846,138L102.0846,131.4648L99.569,131.4648L99.4186,134.3132Q99.29560000000001,136.2773,98.776,137.1204Q98.2611,137.9635,97.14,138L96.6341,138L96.6341,136.8835L96.9987,136.8561Q97.6139,136.7832,97.8783,136.1224Q98.1471,135.4616,98.2201,133.6751L98.35679999999999,130.4167L103.3561,130.4167ZM108.5286,138Q107.0247,138,106.0814,137.0247Q105.138,136.04489999999998,105.138,134.4089L105.138,134.181Q105.138,133.0918,105.5573,132.2396Q105.9766,131.3828,106.73310000000001,130.8997Q107.4896,130.4167,108.3691,130.4167Q109.8138,130.4167,110.6113,131.3783Q111.4134,132.3398,111.4134,134.1309L111.4134,134.6641L106.4004,134.6641Q106.4277,135.69400000000002,107.0384,136.332Q107.6536,136.9655,108.59700000000001,136.9655Q109.26689999999999,136.9655,109.73179999999999,136.7012Q110.1966,136.4323,110.543,135.9948L111.3177,136.5872Q110.388,138,108.5286,138ZM108.3691,131.4557Q107.6035,131.4557,107.084,132.0254Q106.5645,132.5951,106.4414,133.625L110.1465,133.625L110.1465,133.5293Q110.0918,132.5404,109.627,131.998Q109.1621,131.4557,108.3691,131.4557ZM118.9967,134.2904Q118.9967,135.9583,118.22200000000001,136.9792Q117.45179999999999,138,116.1348,138Q114.7858,138,114.0156,137.1569L114.0156,140.9167L112.7487,140.9167L112.7487,130.4167L113.9062,130.4167L113.96549999999999,131.3646Q114.7402,130.4167,116.112,130.4167Q117.4473,130.4167,118.22200000000001,131.4102Q118.9967,132.4036,118.9967,134.1764L118.9967,134.2904ZM117.7344,134.1491Q117.7344,132.9186,117.2012,132.2077Q116.668,131.4922,115.73830000000001,131.4922Q114.5898,131.4922,114.0156,132.4948L114.0156,135.972Q114.58070000000001,136.9655,115.7519,136.9655Q116.6589,136.9655,117.19659999999999,136.2591Q117.7344,135.5482,117.7344,134.1491ZM123.59049999999999,136.9655Q124.2695,136.9655,124.77539999999999,136.5553Q125.2812,136.1452,125.33590000000001,135.5299L126.5299,135.5299Q126.49799999999999,136.168,126.0924,136.7422Q125.6914,137.3164,125.01689999999999,137.6582Q124.3424,138,123.59049999999999,138Q122.082,138,121.1888,137.002Q120.29560000000001,136.0039,120.29560000000001,134.2767L120.29560000000001,134.0671Q120.29560000000001,133.0007,120.69210000000001,132.1712Q121.08850000000001,131.3372,121.8314,130.877Q122.57419999999999,130.4167,123.58590000000001,130.4167Q124.8301,130.4167,125.65039999999999,131.1641Q126.4753,131.9069,126.5299,133.0964L125.33590000000001,133.0964Q125.2812,132.37630000000001,124.78909999999999,131.916Q124.3014,131.4557,123.58590000000001,131.4557Q122.6198,131.4557,122.0911,132.1393Q121.5625,132.8229,121.5625,134.1126L121.5625,134.3496Q121.5625,135.60739999999998,122.0866,136.2865Q122.6152,136.9655,123.59049999999999,136.9655ZM128.0885,130.7083L127.3685,130.1934Q128.00650000000002,129.2637,128.0247,128.2383L128.0247,127.20830000000001L129.278,127.20830000000001L129.278,128.138Q129.2689,128.849,128.93619999999999,129.5599Q128.6081,130.2708,128.0885,130.7083ZM130.1895,130.7083L129.4694,130.1934Q130.10739999999998,129.2637,130.1256,128.2383L130.1256,127.20830000000001L131.3789,127.20830000000001L131.3789,128.138Q131.3698,128.849,131.0371,129.5599Q130.709,130.2708,130.1895,130.7083Z" fill="#5C5EB3" fill-opacity="1"/></g><g><rect x="0" y="153" width="360" height="1" rx="0" fill="#C4C4C4" fill-opacity="0.6000000238418579"/></g></g><g clip-path="url(#master_svg4_0_860)"><g><path d="M25.82812,201.5L23.9375,201.5L23.9375,192.47396L21.14583,193.4375L21.14583,191.83333L25.58333,190.16667L25.82812,190.16667L25.82812,201.5ZM36.849000000000004,193.17708Q36.849000000000004,193.97396,36.4167,194.59896Q35.989599999999996,195.21875,35.25,195.5781Q36.1406,195.9844,36.6198,196.6927Q37.099000000000004,197.401,37.099000000000004,198.2917Q37.099000000000004,199.7708,36.0833,200.6354Q35.0677,201.5,33.3802,201.5Q31.6875,201.5,30.6667,200.6302Q29.6458,199.7604,29.6458,198.2917Q29.6458,197.3906,30.130200000000002,196.6771Q30.6146,195.9635,31.4896,195.5781Q30.755200000000002,195.21875,30.3281,194.59896Q29.9062,193.97396,29.9062,193.17708Q29.9062,191.79167,30.8437,190.97917Q31.7812,190.16667,33.375,190.16667Q34.974000000000004,190.16667,35.911500000000004,190.97917Q36.849000000000004,191.79167,36.849000000000004,193.17708ZM35.2031,198.1927Q35.2031,197.3698,34.697900000000004,196.8646Q34.1927,196.3594,33.364599999999996,196.3594Q32.536500000000004,196.3594,32.0417,196.8646Q31.5469,197.3646,31.5469,198.1927Q31.5469,199.0104,32.0312,199.5Q32.5208,199.9844,33.3802,199.9844Q34.239599999999996,199.9844,34.7188,199.5156Q35.2031,199.0417,35.2031,198.1927ZM34.9583,193.26562Q34.9583,192.57812,34.525999999999996,192.13542Q34.099000000000004,191.69271,33.3698,191.69271Q32.6458,191.69271,32.224000000000004,192.11458Q31.8021,192.53646,31.8021,193.26562Q31.8021,193.98438,32.2292,194.41146Q32.6562,194.83333,33.3802,194.83333Q34.1094,194.83333,34.5312,194.41146Q34.9583,193.98438,34.9583,193.26562ZM39.947900000000004,199.4115Q40.4792,199.4115,40.7656,199.7135Q41.0573,200.0156,41.0573,200.4688Q41.0573,200.9115,40.7656,201.2083Q40.4792,201.5,39.947900000000004,201.5Q39.4427,201.5,39.1458,201.2135Q38.849000000000004,200.9219,38.849000000000004,200.4688Q38.849000000000004,200.0156,39.135400000000004,199.7135Q39.427099999999996,199.4115,39.947900000000004,199.4115ZM39.947900000000004,192.74479Q40.4792,192.74479,40.7656,193.04688Q41.0573,193.34896,41.0573,193.80208Q41.0573,194.24479,40.7656,194.54167Q40.4792,194.83333,39.947900000000004,194.83333Q39.4427,194.83333,39.1458,194.54688Q38.849000000000004,194.25521,38.849000000000004,193.80208Q38.849000000000004,193.34896,39.135400000000004,193.04688Q39.427099999999996,192.74479,39.947900000000004,192.74479ZM50.4323,196.7031Q50.4323,199.0833,49.5156,200.2917Q48.599,201.5,46.724000000000004,201.5Q44.8802,201.5,43.9427,200.3229Q43.010400000000004,199.1458,42.989599999999996,196.8333L42.989599999999996,194.92188Q42.989599999999996,192.54688,43.9062,191.35938Q44.822900000000004,190.16667,46.7083,190.16667Q48.5729,190.16667,49.4896,191.32812Q50.4115,192.48438,50.4323,194.79688L50.4323,196.7031ZM48.5365,194.65625Q48.5365,193.125,48.099,192.41146Q47.661500000000004,191.69271,46.7083,191.69271Q45.775999999999996,191.69271,45.338499999999996,192.36979Q44.900999999999996,193.04688,44.8802,194.48438L44.8802,196.9583Q44.8802,198.4844,45.322900000000004,199.2344Q45.7708,199.9844,46.724000000000004,199.9844Q47.635400000000004,199.9844,48.0729,199.2917Q48.5104,198.599,48.5365,197.125L48.5365,194.65625ZM59.4323,196.7031Q59.4323,199.0833,58.5156,200.2917Q57.599,201.5,55.724,201.5Q53.8802,201.5,52.9427,200.3229Q52.0104,199.1458,51.9896,196.8333L51.9896,194.92188Q51.9896,192.54688,52.9062,191.35938Q53.8229,190.16667,55.7083,190.16667Q57.5729,190.16667,58.4896,191.32812Q59.4115,192.48438,59.4323,194.79688L59.4323,196.7031ZM57.5365,194.65625Q57.5365,193.125,57.099,192.41146Q56.6615,191.69271,55.7083,191.69271Q54.776,191.69271,54.3385,192.36979Q53.901,193.04688,53.8802,194.48438L53.8802,196.9583Q53.8802,198.4844,54.3229,199.2344Q54.7708,199.9844,55.724,199.9844Q56.6354,199.9844,57.0729,199.2917Q57.5104,198.599,57.5365,197.125L57.5365,194.65625Z" fill="#5C5EB3" fill-opacity="1"/></g><g><path d="M88.8138,197.3516Q88.8138,198.7734,88.32160999999999,199.8307Q87.82943,200.888,86.92708,201.444Q86.02474,202,84.82160999999999,202Q83.64583,202,82.73438,201.4395Q81.82747,200.8789,81.32161,199.8444Q80.820312,198.8053,80.806641,197.4382L80.806641,196.74544Q80.806641,195.35091,81.30339,194.28451Q81.80469,193.2181,82.71615,192.653Q83.63216,192.08333,84.80794,192.08333Q86.00195,192.08333,86.91341,192.64388Q87.82943,193.20443,88.32160999999999,194.27083Q88.8138,195.33268,88.8138,196.74544L88.8138,197.3516ZM87.50586,196.73177Q87.50586,195.0319,86.79492,194.125Q86.08398,193.21354,84.80794,193.21354Q83.5638,193.21354,82.84831,194.125Q82.13281,195.0319,82.11458,196.64974L82.11458,197.3516Q82.11458,198.9967,82.83464,199.9401Q83.55469,200.8835,84.82160999999999,200.8835Q86.09309999999999,200.8835,86.79035999999999,199.9948Q87.48763,199.1061,87.50586,197.4427L87.50586,196.73177ZM93.8314,195Q95.2259,195,96.0599,195.92057Q96.8984,196.83659,96.8984,198.3405L96.8984,198.4544Q96.8984,199.4844,96.4928,200.2956Q96.0918,201.1068,95.3353,201.5534Q94.5833,202,93.599,202Q92.1087,202,91.1973,201.0065Q90.2904,200.013,90.2904,198.3405L90.2904,197.7253Q90.2904,195.39648,91.1517,194.02474Q92.0176,192.64844,93.7083,192.34766Q94.6654,192.16992,94.998,191.91471Q95.3353,191.65495,95.3353,191.20833L96.3743,191.20833Q96.3743,192.09701,95.987,192.59375Q95.5996,193.0905,94.752,193.30013L93.8086,193.51888Q92.6829,193.78776,92.1178,194.43034Q91.5527,195.07292,91.3841,196.14388Q92.3867,195,93.8314,195ZM93.5853,196.03906Q92.65559999999999,196.03906,92.1087,196.6543Q91.5618,197.265,91.5618,198.3451L91.5618,198.4544Q91.5618,199.6165,92.1087,200.2956Q92.6602,200.9746,93.599,200.9746Q94.5423,200.9746,95.0892,200.2956Q95.6361,199.612,95.6361,198.2995Q95.6361,197.2741,95.0846,196.65885Q94.5332,196.03906,93.5853,196.03906ZM101.4238,200.9655Q102.1029,200.9655,102.6087,200.5553Q103.1146,200.1452,103.16929999999999,199.5299L104.3633,199.5299Q104.3314,200.168,103.9258,200.7422Q103.5247,201.3164,102.8503,201.6582Q102.1758,202,101.4238,202Q99.9154,202,99.0221,201.002Q98.1289,200.0039,98.1289,198.2767L98.1289,198.0671Q98.1289,197.0007,98.5254,196.17122Q98.9219,195.33724,99.6647,194.87695Q100.4076,194.41667,101.41929999999999,194.41667Q102.6634,194.41667,103.4837,195.16406Q104.3086,195.9069,104.3633,197.0964L103.16929999999999,197.0964Q103.1146,196.37630000000001,102.6224,195.91602Q102.1348,195.45573,101.41929999999999,195.45573Q100.4531,195.45573,99.9245,196.13932Q99.39580000000001,196.82292,99.39580000000001,198.1126L99.39580000000001,198.3496Q99.39580000000001,199.6074,99.9199,200.2865Q100.4486,200.9655,101.4238,200.9655ZM108.1686,200.0221L109.8913,194.41667L111.2448,194.41667L108.2734,203.0482Q107.58070000000001,204.9167,106.07679999999999,204.9167L105.8398,204.8939L105.3659,204.8073L105.3659,203.7819L105.7077,203.8092Q106.3503,203.8092,106.7103,203.5404Q107.0703,203.276,107.3027,202.5651L107.58070000000001,201.7949L104.9421,194.41667L106.3229,194.41667L108.1686,200.0221ZM112.39779999999999,200.9655L112.83529999999999,200.4095Q113.5736,199.4251,113.6738,197.4564L113.7923,194.41667L118.5547,194.41667L118.5547,200.9655L119.5072,200.9655L119.5072,204.0417L118.2402,204.0417L118.2402,202L113.0814,202L113.0814,204.0417L111.8145,204.0417L111.8236,200.9655L112.39779999999999,200.9655ZM113.8926,200.9655L117.2923,200.9655L117.2923,195.58789L115.0137,195.58789L114.9408,197.4154Q114.8223,199.6986,113.8926,200.9655ZM125.7005,194.41667L126.9674,194.41667L126.9674,202L125.7005,202L125.7005,196.47201L122.29169999999999,202L121.0247,202L121.0247,194.41667L122.29169999999999,194.41667L122.29169999999999,199.9538L125.7005,194.41667ZM134.5781,195.44206L132.099,195.44206L132.099,202L130.832,202L130.832,195.44206L128.3984,195.44206L128.3984,194.41667L134.5781,194.41667L134.5781,195.44206ZM137.1712,197.0417L139.0944,197.0417Q140.3522,197.0553,141.0814,197.7161Q141.8151,198.3724,141.8151,199.498Q141.8151,200.6283,141.0631,201.3164Q140.31119999999999,202,139.0397,202L135.90890000000002,202L135.90890000000002,194.41667L137.1712,194.41667L137.1712,197.0417ZM137.1712,198.0762L137.1712,200.9655L139.0534,200.9655Q139.7643,200.9655,140.1517,200.5872Q140.5436,200.2044,140.5436,199.5436Q140.5436,198.9056,140.1608,198.5Q139.7826,198.0898,139.099,198.0762L137.1712,198.0762ZM146.8145,200.9655L147.252,200.4095Q147.99020000000002,199.4251,148.09050000000002,197.4564L148.209,194.41667L152.97140000000002,194.41667L152.97140000000002,200.9655L153.9238,200.9655L153.9238,204.0417L152.6569,204.0417L152.6569,202L147.498,202L147.498,204.0417L146.2311,204.0417L146.24020000000002,200.9655L146.8145,200.9655ZM148.3092,200.9655L151.709,200.9655L151.709,195.58789L149.4303,195.58789L149.35739999999998,197.4154Q149.2389,199.6986,148.3092,200.9655ZM158.40359999999998,202Q156.8997,202,155.9564,201.0247Q155.013,200.0449,155.013,198.4089L155.013,198.181Q155.013,197.0918,155.4323,196.23958Q155.85160000000002,195.38281,156.60809999999998,194.89974Q157.3646,194.41667,158.2441,194.41667Q159.68880000000001,194.41667,160.4863,195.37826Q161.2884,196.33984,161.2884,198.1309L161.2884,198.6641L156.2754,198.6641Q156.30270000000002,199.694,156.9134,200.332Q157.52859999999998,200.9655,158.47199999999998,200.9655Q159.14190000000002,200.9655,159.60680000000002,200.7012Q160.0716,200.4323,160.418,199.9948L161.1927,200.5872Q160.263,202,158.40359999999998,202ZM158.2441,195.45573Q157.4785,195.45573,156.959,196.02539Q156.4395,196.59505000000001,156.3164,197.625L160.0215,197.625L160.0215,197.5293Q159.9668,196.54037,159.502,195.99805Q159.0371,195.45573,158.2441,195.45573ZM168.1198,195.44206L165.6406,195.44206L165.6406,202L164.37369999999999,202L164.37369999999999,195.44206L161.9401,195.44206L161.9401,194.41667L168.1198,194.41667L168.1198,195.44206ZM173.89839999999998,202Q173.78910000000002,201.7448,173.7207,201.0931Q172.84109999999998,202,171.61520000000002,202Q170.5215,202,169.8197,201.3757Q169.1224,200.75130000000001,169.1224,199.7897Q169.1224,198.623,169.9974,197.9805Q170.877,197.3333,172.47199999999998,197.3333L173.7025,197.3333L173.7025,196.79102Q173.7025,196.17122,173.30599999999998,195.80664Q172.90949999999998,195.4375,172.13479999999998,195.4375Q171.46030000000002,195.4375,171,195.75195Q170.54430000000002,196.06185,170.54430000000002,196.50846L169.27280000000002,196.50846Q169.27280000000002,195.97982,169.66469999999998,195.48763Q170.0566,194.99089,170.7311,194.70378Q171.4056,194.41667,172.2122,194.41667Q173.48829999999998,194.41667,174.2129,195.05925Q174.9375,195.70182,174.9648,196.83203L174.9648,200.2591Q174.9648,201.2845,175.2246,201.8906L175.2246,202L173.89839999999998,202ZM171.8021,200.8971Q172.3945,200.8971,172.92770000000002,200.5872Q173.46089999999998,200.2728,173.7025,199.7715L173.7025,198.2311L172.709,198.2311Q170.38479999999998,198.2311,170.38479999999998,199.612Q170.38479999999998,200.2181,170.7812,200.5599Q171.17770000000002,200.8971,171.8021,200.8971ZM182.981,194.41667L182.981,202L181.70999999999998,202L181.70999999999998,195.46484L179.19400000000002,195.46484L179.0436,198.3132Q178.92059999999998,200.2773,178.401,201.1204Q177.8861,201.9635,176.765,202L176.2591,202L176.2591,200.8835L176.62369999999999,200.8561Q177.2389,200.7832,177.5033,200.1224Q177.7721,199.4616,177.8451,197.6751L177.98180000000002,194.41667L182.981,194.41667ZM189.86700000000002,194.41667L191.13400000000001,194.41667L191.13400000000001,202L189.86700000000002,202L189.86700000000002,196.47201L186.458,202L185.191,202L185.191,194.41667L186.458,194.41667L186.458,199.9538L189.86700000000002,194.41667ZM202.801,202L201.534,202L201.534,195.46484L198.13,195.46484L198.13,202L196.858,202L196.858,194.41667L202.801,194.41667L202.801,202ZM204.583,198.14Q204.583,197.0645,205.007,196.20768Q205.435,195.35091,206.196,194.88607Q206.962,194.41667,207.937,194.41667Q209.45,194.41667,210.38,195.45117Q211.314,196.48568,211.314,198.2038L211.314,198.2904Q211.314,199.3568,210.899,200.2044Q210.489,201.0521,209.719,201.526Q208.949,202,207.951,202Q206.447,202,205.512,200.9655Q204.583,199.931,204.583,198.2266L204.583,198.14ZM205.85399999999998,198.2858Q205.85399999999998,199.498,206.424,200.2318Q206.993,200.9655,207.951,200.9655Q208.917,200.9655,209.482,200.2227Q210.051,199.4798,210.051,198.14Q210.051,196.94141,209.473,196.19857Q208.894,195.45573,207.937,195.45573Q207.003,195.45573,206.428,196.18945Q205.85399999999998,196.92318,205.85399999999998,198.2858ZM215.757,200.9655Q216.436,200.9655,216.942,200.5553Q217.448,200.1452,217.503,199.5299L218.697,199.5299Q218.665,200.168,218.259,200.7422Q217.858,201.3164,217.184,201.6582Q216.509,202,215.757,202Q214.249,202,213.355,201.002Q212.462,200.0039,212.462,198.2767L212.462,198.0671Q212.462,197.0007,212.859,196.17122Q213.255,195.33724,213.998,194.87695Q214.741,194.41667,215.753,194.41667Q216.997,194.41667,217.817,195.16406Q218.642,195.9069,218.697,197.0964L217.503,197.0964Q217.448,196.37630000000001,216.956,195.91602Q216.468,195.45573,215.753,195.45573Q214.786,195.45573,214.258,196.13932Q213.729,196.82292,213.729,198.1126L213.729,198.3496Q213.729,199.6074,214.253,200.2865Q214.782,200.9655,215.757,200.9655ZM225.578,195.44206L223.099,195.44206L223.099,202L221.832,202L221.832,195.44206L219.398,195.44206L219.398,194.41667L225.578,194.41667L225.578,195.44206ZM231.357,202Q231.247,201.7448,231.179,201.0931Q230.299,202,229.074,202Q227.98,202,227.278,201.3757Q226.581,200.75130000000001,226.581,199.7897Q226.581,198.623,227.456,197.9805Q228.335,197.3333,229.93,197.3333L231.161,197.3333L231.161,196.79102Q231.161,196.17122,230.764,195.80664Q230.368,195.4375,229.593,195.4375Q228.919,195.4375,228.458,195.75195Q228.003,196.06185,228.003,196.50846L226.731,196.50846Q226.731,195.97982,227.123,195.48763Q227.515,194.99089,228.189,194.70378Q228.864,194.41667,229.671,194.41667Q230.947,194.41667,231.671,195.05925Q232.396,195.70182,232.423,196.83203L232.423,200.2591Q232.423,201.2845,232.683,201.8906L232.683,202L231.357,202ZM229.26,200.8971Q229.853,200.8971,230.386,200.5872Q230.919,200.2728,231.161,199.7715L231.161,198.2311L230.167,198.2311Q227.843,198.2311,227.843,199.612Q227.843,200.2181,228.24,200.5599Q228.636,200.8971,229.26,200.8971ZM234.492,202L234.492,194.41667L237.377,194.41667Q238.854,194.41667,239.642,194.9043Q240.43,195.38737,240.43,196.32162Q240.43,196.80469,240.12,197.1921Q239.815,197.5794,239.214,197.7845Q239.883,197.9577,240.289,198.4681Q240.699,198.974,240.699,199.6758Q240.699,200.806,239.947,201.403Q239.2,202,237.833,202L234.492,202ZM235.755,198.3451L235.755,200.9792L237.846,200.9792Q238.639,200.9792,239.031,200.6328Q239.428,200.2865,239.428,199.653Q239.428,198.3451,237.801,198.3451L235.755,198.3451ZM235.755,197.3333L237.391,197.3333Q239.168,197.3333,239.168,196.40365Q239.168,195.47396,237.486,195.44206L235.755,195.44206L235.755,197.3333ZM241.916,198.14Q241.916,197.0645,242.34,196.20768Q242.768,195.35091,243.529,194.88607Q244.295,194.41667,245.27,194.41667Q246.783,194.41667,247.713,195.45117Q248.647,196.48568,248.647,198.2038L248.647,198.2904Q248.647,199.3568,248.232,200.2044Q247.822,201.0521,247.052,201.526Q246.282,202,245.284,202Q243.78,202,242.846,200.9655Q241.916,199.931,241.916,198.2266L241.916,198.14ZM243.187,198.2858Q243.187,199.498,243.757,200.2318Q244.327,200.9655,245.284,200.9655Q246.25,200.9655,246.815,200.2227Q247.385,199.4798,247.385,198.14Q247.385,196.94141,246.806,196.19857Q246.227,195.45573,245.27,195.45573Q244.336,195.45573,243.762,196.18945Q243.187,196.92318,243.187,198.2858ZM252.43,198.7415L251.505,198.7415L251.505,202L250.233,202L250.233,194.41667L251.505,194.41667L251.505,197.625L252.334,197.625L254.822,194.41667L256.35400000000004,194.41667L253.428,198.0488L256.6,202L254.991,202L252.43,198.7415Z" fill="#5C5EB3" fill-opacity="1"/></g><g><rect x="0" y="227" width="360" height="1" rx="0" fill="#C4C4C4" fill-opacity="0.6000000238418579"/></g></g><g clip-path="url(#master_svg5_0_864)"><rect x="0" y="238" width="360" height="64" rx="0" fill="#5C5EB3" fill-opacity="0.10000000149011612"/><g><path d="M28.3333,275.5L20.6875,275.5L20.6875,274.2188L24.473959999999998,270.1562Q25.29687,269.26562,25.64062,268.66667Q25.98958,268.06771,25.98958,267.46354Q25.98958,266.67188,25.53125,266.18229Q25.07812,265.69271,24.30208,265.69271Q23.380209999999998,265.69271,22.869790000000002,266.25521Q22.36458,266.81771,22.36458,267.79688L20.46875,267.79688Q20.46875,266.75521,20.9375,265.92188Q21.411459999999998,265.08854,22.29167,264.63021Q23.17187,264.16667,24.317709999999998,264.16667Q25.973959999999998,264.16667,26.932299999999998,264.98438Q27.8906,265.80208,27.8906,267.24479Q27.8906,268.08333,27.4062,269Q26.9271,269.9167,25.83333,271.0781L23.05208,273.9844L28.3333,273.9844L28.3333,275.5ZM34.8281,275.5L32.9375,275.5L32.9375,266.47396L30.1458,267.4375L30.1458,265.83333L34.5833,264.16667L34.8281,264.16667L34.8281,275.5ZM39.947900000000004,273.4115Q40.4792,273.4115,40.7656,273.7135Q41.0573,274.0156,41.0573,274.4688Q41.0573,274.9115,40.7656,275.2083Q40.4792,275.5,39.947900000000004,275.5Q39.4427,275.5,39.1458,275.2135Q38.849000000000004,274.9219,38.849000000000004,274.4688Q38.849000000000004,274.0156,39.135400000000004,273.7135Q39.427099999999996,273.4115,39.947900000000004,273.4115ZM39.947900000000004,266.74479Q40.4792,266.74479,40.7656,267.04688Q41.0573,267.34896,41.0573,267.80208Q41.0573,268.24479,40.7656,268.54167Q40.4792,268.83333,39.947900000000004,268.83333Q39.4427,268.83333,39.1458,268.54688Q38.849000000000004,268.25521,38.849000000000004,267.80208Q38.849000000000004,267.34896,39.135400000000004,267.04688Q39.427099999999996,266.74479,39.947900000000004,266.74479ZM45.213499999999996,268.83333L46.3698,268.83333Q47.2448,268.82812,47.7552,268.42188Q48.2708,268.01562,48.2708,267.25Q48.2708,266.51042,47.8438,266.10417Q47.4167,265.69271,46.5417,265.69271Q45.775999999999996,265.69271,45.2812,266.13542Q44.7917,266.57812,44.7917,267.28646L42.8958,267.28646Q42.8958,266.41146,43.3594,265.69271Q43.822900000000004,264.97396,44.6562,264.57292Q45.489599999999996,264.16667,46.5208,264.16667Q48.224,264.16667,49.1927,264.97917Q50.1667,265.78646,50.1667,267.22396Q50.1667,267.94792,49.6771,268.58854Q49.1927,269.22917,48.4167,269.5521Q49.3542,269.8698,49.8438,270.5521Q50.3333,271.2344,50.3333,272.1823Q50.3333,273.7031,49.2812,274.6042Q48.2292,275.5,46.5208,275.5Q44.8802,275.5,43.8333,274.625Q42.786500000000004,273.75,42.786500000000004,272.2969L44.6823,272.2969Q44.6823,273.0469,45.1875,273.5156Q45.6927,273.9844,46.5417,273.9844Q47.427099999999996,273.9844,47.9323,273.5208Q48.4427,273.0573,48.4427,272.1771Q48.4427,271.2917,47.911500000000004,270.8125Q47.3802,270.3333,46.3333,270.3333L45.213499999999996,270.3333L45.213499999999996,268.83333ZM59.4323,270.7031Q59.4323,273.0833,58.5156,274.2917Q57.599,275.5,55.724,275.5Q53.8802,275.5,52.9427,274.3229Q52.0104,273.1458,51.9896,270.8333L51.9896,268.92188Q51.9896,266.54688,52.9062,265.35938Q53.8229,264.16667,55.7083,264.16667Q57.5729,264.16667,58.4896,265.32812Q59.4115,266.48438,59.4323,268.79688L59.4323,270.7031ZM57.5365,268.65625Q57.5365,267.125,57.099,266.41146Q56.6615,265.69271,55.7083,265.69271Q54.776,265.69271,54.3385,266.36979Q53.901,267.04688,53.8802,268.48438L53.8802,270.9583Q53.8802,272.4844,54.3229,273.2344Q54.7708,273.9844,55.724,273.9844Q56.6354,273.9844,57.0729,273.2917Q57.5104,272.599,57.5365,271.125L57.5365,268.65625Z" fill="#5C5EB3" fill-opacity="1"/></g><g><path d="M88.47656,272.7051Q88.29427,274.2819,87.3099,275.1432Q86.33008,276,84.70312,276Q82.93945,276,81.8776,274.7741Q80.815755,273.5482,80.815755,271.4928L80.815755,270.56315Q80.815755,269.21875,81.30794,268.19792Q81.80469,267.17708,82.71159,266.63021Q83.62305,266.08333,84.82160999999999,266.08333Q86.40755,266.08333,87.36458,266.96745Q88.32160999999999,267.85156,88.47656,269.41927L87.1595,269.41927Q86.98633,268.22982,86.41667,267.69662Q85.847,267.16341,84.82160999999999,267.16341Q83.5638,267.16341,82.84831,268.05664Q82.13281,268.94987,82.13281,270.59961L82.13281,271.5247Q82.13281,273.0833,82.80729,274.0039Q83.48633,274.9245,84.70312,274.9245Q85.79688,274.9245,86.38021,274.4323Q86.96809999999999,273.9355,87.1595,272.7051L88.47656,272.7051ZM89.66601,272.14Q89.66601,271.0645,90.0898,270.20768Q90.51820000000001,269.35091,91.2793,268.88607Q92.0449,268.41667,93.0202,268.41667Q94.5332,268.41667,95.4629,269.45117Q96.3971,270.48568,96.3971,272.2038L96.3971,272.2904Q96.3971,273.3568,95.9824,274.2044Q95.5723,275.0521,94.8021,275.526Q94.03190000000001,276,93.0339,276Q91.5299,276,90.5957,274.9655Q89.66601,273.931,89.66601,272.2266L89.66601,272.14ZM90.9375,272.2858Q90.9375,273.498,91.5072,274.2318Q92.0768,274.9655,93.0339,274.9655Q94,274.9655,94.5651,274.2227Q95.1348,273.4798,95.1348,272.14Q95.1348,270.94141,94.556,270.19857Q93.9772,269.45573,93.0202,269.45573Q92.0859,269.45573,91.5117,270.18945Q90.9375,270.92318,90.9375,272.2858ZM100.84049999999999,274.9655Q101.5195,274.9655,102.0254,274.5553Q102.5312,274.1452,102.5859,273.5299L103.7799,273.5299Q103.748,274.168,103.3424,274.7422Q102.9414,275.3164,102.26689999999999,275.6582Q101.5924,276,100.84049999999999,276Q99.332,276,98.4388,275.002Q97.54560000000001,274.0039,97.54560000000001,272.2767L97.54560000000001,272.0671Q97.54560000000001,271.0007,97.9421,270.17122Q98.3385,269.33724,99.0814,268.87695Q99.8242,268.41667,100.8359,268.41667Q102.0801,268.41667,102.9004,269.16406Q103.7253,269.9069,103.7799,271.0964L102.5859,271.0964Q102.5312,270.3763,102.0391,269.91602Q101.5514,269.45573,100.8359,269.45573Q99.8698,269.45573,99.3411,270.13932Q98.8125,270.82292,98.8125,272.1126L98.8125,272.3496Q98.8125,273.6074,99.3366,274.2865Q99.8652,274.9655,100.84049999999999,274.9655ZM110.6615,269.44206L108.1823,269.44206L108.1823,276L106.9154,276L106.9154,269.44206L104.48179999999999,269.44206L104.48179999999999,268.41667L110.6615,268.41667L110.6615,269.44206ZM116.4401,276Q116.33070000000001,275.7448,116.2624,275.0931Q115.3828,276,114.15690000000001,276Q113.06309999999999,276,112.3613,275.3757Q111.6641,274.7513,111.6641,273.7897Q111.6641,272.623,112.53909999999999,271.9805Q113.4186,271.3333,115.0137,271.3333L116.2441,271.3333L116.2441,270.79102Q116.2441,270.17122,115.8477,269.80664Q115.4512,269.4375,114.6764,269.4375Q114.0019,269.4375,113.54169999999999,269.75195Q113.08590000000001,270.06185,113.08590000000001,270.50846L111.8145,270.50846Q111.8145,269.97982,112.2064,269.48763Q112.5983,268.99089,113.27279999999999,268.70378Q113.9473,268.41667,114.7539,268.41667Q116.0299,268.41667,116.75460000000001,269.05925Q117.47919999999999,269.70182,117.5065,270.83203L117.5065,274.2591Q117.5065,275.2845,117.7663,275.8906L117.7663,276L116.4401,276ZM114.3437,274.8971Q114.9362,274.8971,115.46940000000001,274.5872Q116.0026,274.2728,116.2441,273.7715L116.2441,272.2311L115.25059999999999,272.2311Q112.9264,272.2311,112.9264,273.612Q112.9264,274.2181,113.3229,274.5599Q113.71940000000001,274.8971,114.3437,274.8971ZM119.5755,276L119.5755,268.41667L122.46029999999999,268.41667Q123.9368,268.41667,124.7253,268.9043Q125.5137,269.38737,125.5137,270.32162Q125.5137,270.80469,125.2038,271.1921Q124.89840000000001,271.5794,124.2969,271.7845Q124.9668,271.9577,125.3724,272.4681Q125.7825,272.974,125.7825,273.6758Q125.7825,274.806,125.03059999999999,275.403Q124.2832,276,122.916,276L119.5755,276ZM120.83789999999999,272.3451L120.83789999999999,274.9792L122.9297,274.9792Q123.7227,274.9792,124.1146,274.6328Q124.5111,274.2865,124.5111,273.653Q124.5111,272.3451,122.88409999999999,272.3451L120.83789999999999,272.3451ZM120.83789999999999,271.3333L122.47399999999999,271.3333Q124.2513,271.3333,124.2513,270.40365Q124.2513,269.47396,122.5697,269.44206L120.83789999999999,269.44206L120.83789999999999,271.3333ZM132.1172,268.41667L133.3841,268.41667L133.3841,276L132.1172,276L132.1172,270.47201L128.7083,276L127.4414,276L127.4414,268.41667L128.7083,268.41667L128.7083,273.9538L132.1172,268.41667ZM140.9948,269.44206L138.5156,269.44206L138.5156,276L137.24869999999999,276L137.24869999999999,269.44206L134.8151,269.44206L134.8151,268.41667L140.9948,268.41667L140.9948,269.44206ZM143.5879,271.0417L145.5111,271.0417Q146.7689,271.0553,147.498,271.7161Q148.23180000000002,272.3724,148.23180000000002,273.498Q148.23180000000002,274.6283,147.4798,275.3164Q146.7279,276,145.4564,276L142.3255,276L142.3255,268.41667L143.5879,268.41667L143.5879,271.0417ZM143.5879,272.0762L143.5879,274.9655L145.47,274.9655Q146.18099999999998,274.9655,146.5684,274.5872Q146.96030000000002,274.2044,146.96030000000002,273.5436Q146.96030000000002,272.9056,146.5775,272.5Q146.19920000000002,272.0898,145.5156,272.0762L143.5879,272.0762ZM159.3424,276L158.0755,276L158.0755,269.46484L154.6712,269.46484L154.6712,276L153.3997,276L153.3997,268.41667L159.3424,268.41667L159.3424,276ZM167.52280000000002,268.41667L167.52280000000002,276L166.25130000000001,276L166.25130000000001,269.46484L163.7357,269.46484L163.58530000000002,272.3132Q163.4622,274.2773,162.9427,275.1204Q162.42770000000002,275.9635,161.3066,276L160.80079999999998,276L160.80079999999998,274.8835L161.1654,274.8561Q161.7806,274.7832,162.04489999999998,274.1224Q162.31380000000001,273.4616,162.38670000000002,271.6751L162.52339999999998,268.41667L167.52280000000002,268.41667ZM174.1901,276Q174.08069999999998,275.7448,174.0124,275.0931Q173.1328,276,171.9069,276Q170.81310000000002,276,170.1113,275.3757Q169.41410000000002,274.7513,169.41410000000002,273.7897Q169.41410000000002,272.623,170.28910000000002,271.9805Q171.1686,271.3333,172.7637,271.3333L173.9941,271.3333L173.9941,270.79102Q173.9941,270.17122,173.5976,269.80664Q173.2012,269.4375,172.4264,269.4375Q171.7519,269.4375,171.2917,269.75195Q170.83589999999998,270.06185,170.83589999999998,270.50846L169.5644,270.50846Q169.5644,269.97982,169.9564,269.48763Q170.3483,268.99089,171.02280000000002,268.70378Q171.69729999999998,268.41667,172.5039,268.41667Q173.7799,268.41667,174.5045,269.05925Q175.2292,269.70182,175.25650000000002,270.83203L175.25650000000002,274.2591Q175.25650000000002,275.2845,175.5163,275.8906L175.5163,276L174.1901,276ZM172.0937,274.8971Q172.68619999999999,274.8971,173.2194,274.5872Q173.7526,274.2728,173.9941,273.7715L173.9941,272.2311L173.00060000000002,272.2311Q170.6764,272.2311,170.6764,273.612Q170.6764,274.2181,171.0729,274.5599Q171.4694,274.8971,172.0937,274.8971ZM183.25,276L181.988,276L181.988,272.6595L178.5879,272.6595L178.5879,276L177.3164,276L177.3164,268.41667L178.5879,268.41667L178.5879,271.625L181.988,271.625L181.988,268.41667L183.25,268.41667L183.25,276ZM194.461,276L193.189,276L193.189,273.3203Q192.35500000000002,273.5391,191.48000000000002,273.5391Q190.09,273.5391,189.361,272.8053Q188.637,272.0671,188.623,270.70443L188.623,268.41667L189.885,268.41667L189.885,270.76823Q189.922,272.5,191.48000000000002,272.5Q192.35500000000002,272.5,193.189,272.2721L193.189,268.41667L194.461,268.41667L194.461,276ZM199.529,276Q198.025,276,197.08100000000002,275.0247Q196.138,274.0449,196.138,272.4089L196.138,272.181Q196.138,271.0918,196.55700000000002,270.23958Q196.977,269.38281,197.733,268.89974Q198.49,268.41667,199.369,268.41667Q200.814,268.41667,201.611,269.37826Q202.413,270.33984,202.413,272.1309L202.413,272.6641L197.4,272.6641Q197.428,273.694,198.038,274.332Q198.654,274.9655,199.59699999999998,274.9655Q200.267,274.9655,200.732,274.7012Q201.197,274.4323,201.543,273.9948L202.31799999999998,274.5872Q201.388,276,199.529,276ZM199.369,269.45573Q198.60399999999998,269.45573,198.084,270.02539Q197.564,270.59505,197.441,271.625L201.14600000000002,271.625L201.14600000000002,271.5293Q201.09199999999998,270.54037,200.627,269.99805Q200.162,269.45573,199.369,269.45573ZM208.529,269.46484L205.11599999999999,269.46484L205.11599999999999,276L203.844,276L203.844,268.41667L208.529,268.41667L208.529,269.46484ZM209.249,272.14Q209.249,271.0645,209.673,270.20768Q210.102,269.35091,210.863,268.88607Q211.628,268.41667,212.604,268.41667Q214.117,268.41667,215.046,269.45117Q215.98,270.48568,215.98,272.2038L215.98,272.2904Q215.98,273.3568,215.566,274.2044Q215.156,275.0521,214.385,275.526Q213.615,276,212.617,276Q211.113,276,210.179,274.9655Q209.249,273.931,209.249,272.2266L209.249,272.14ZM210.521,272.2858Q210.521,273.498,211.09,274.2318Q211.66,274.9655,212.617,274.9655Q213.583,274.9655,214.148,274.2227Q214.718,273.4798,214.718,272.14Q214.718,270.94141,214.139,270.19857Q213.561,269.45573,212.604,269.45573Q211.669,269.45573,211.095,270.18945Q210.521,270.92318,210.521,272.2858ZM220.091,272.3678L216.755,272.3678L216.755,271.3333L220.091,271.3333L220.091,272.3678ZM227.292,276L226.029,276L226.029,272.6595L222.63,272.6595L222.63,276L221.358,276L221.358,268.41667L222.63,268.41667L222.63,271.625L226.029,271.625L226.029,268.41667L227.292,268.41667L227.292,276ZM234.201,268.41667L235.467,268.41667L235.467,276L234.201,276L234.201,270.47201L230.792,276L229.525,276L229.525,268.41667L230.792,268.41667L230.792,273.9538L234.201,268.41667ZM240.831,269Q242.226,269,243.06,269.92057Q243.898,270.83659,243.898,272.3405L243.898,272.4544Q243.898,273.4844,243.493,274.2956Q243.092,275.1068,242.335,275.5534Q241.583,276,240.599,276Q239.109,276,238.197,275.0065Q237.29,274.013,237.29,272.3405L237.29,271.7253Q237.29,269.39648,238.152,268.02474Q239.018,266.64844,240.708,266.34766Q241.665,266.16992,241.998,265.91471Q242.335,265.65495,242.335,265.20833L243.374,265.20833Q243.374,266.09701,242.987,266.59375Q242.6,267.0905,241.752,267.30013L240.809,267.51888Q239.683,267.78776,239.118,268.43034Q238.553,269.07292,238.384,270.14388Q239.387,269,240.831,269ZM240.585,270.03906Q239.656,270.03906,239.109,270.6543Q238.562,271.265,238.562,272.3451L238.562,272.4544Q238.562,273.6165,239.109,274.2956Q239.66,274.9746,240.599,274.9746Q241.542,274.9746,242.089,274.2956Q242.636,273.612,242.636,272.2995Q242.636,271.2741,242.085,270.65885Q241.533,270.03906,240.585,270.03906ZM247.877,274.0221L249.6,268.41667L250.953,268.41667L247.982,277.0482Q247.289,278.9167,245.785,278.9167L245.548,278.8939L245.074,278.8073L245.074,277.7819L245.416,277.8092Q246.059,277.8092,246.419,277.5404Q246.779,277.276,247.011,276.5651L247.289,275.7949L244.65,268.41667L246.031,268.41667L247.877,274.0221ZM252.106,274.9655L252.544,274.4095Q253.282,273.4251,253.382,271.4564L253.501,268.41667L258.26300000000003,268.41667L258.26300000000003,274.9655L259.21500000000003,274.9655L259.21500000000003,278.0417L257.949,278.0417L257.949,276L252.79,276L252.79,278.0417L251.523,278.0417L251.532,274.9655L252.106,274.9655ZM253.601,274.9655L257.001,274.9655L257.001,269.58789L254.722,269.58789L254.649,271.4154Q254.531,273.6986,253.601,274.9655ZM262.005,271.0417L263.928,271.0417Q265.18600000000004,271.0553,265.91499999999996,271.7161Q266.648,272.3724,266.648,273.498Q266.648,274.6283,265.89599999999996,275.3164Q265.145,276,263.873,276L260.74199999999996,276L260.74199999999996,268.41667L262.005,268.41667L262.005,271.0417ZM262.005,272.0762L262.005,274.9655L263.887,274.9655Q264.598,274.9655,264.985,274.5872Q265.377,274.2044,265.377,273.5436Q265.377,272.9056,264.994,272.5Q264.616,272.0898,263.932,272.0762L262.005,272.0762Z" fill="#5C5EB3" fill-opacity="1"/></g><g><rect x="0" y="301" width="360" height="1" rx="0" fill="#C4C4C4" fill-opacity="0.6000000238418579"/></g></g><g><g><rect x="0" y="0" width="360" height="24" rx="0" fill="#6200EE" fill-opacity="1"/></g><g><path d="M316,7C316,7,306,7,306,7C306,7,306,17,306,17C306,17,316,17,316,17C316,17,316,7,316,7C316,7,316,7,316,7ZM324,12C324,9.238579999999999,326.2386,7,329,7C331.7614,7,334,9.238579999999999,334,12C334,14.761420000000001,331.7614,17,329,17C326.2386,17,324,14.761420000000001,324,12C324,12,324,12,324,12ZM346,17C346,17,352,7,352,7C352,7,340,7,340,7C340,7,346,17,346,17C346,17,346,17,346,17Z" fill-rule="evenodd" fill="#FFFFFF" fill-opacity="0.3799999952316284"/></g></g></g></svg>